<svg width="238" height="153" viewBox="0 0 238 153" fill="none" xmlns="http://www.w3.org/2000/svg">
<g clip-path="url(#clip0_344_6815)">
<rect width="340" height="153" fill="#112695"/>
<g style="mix-blend-mode:color-dodge" opacity="0.34">
<rect width="238" height="153" fill="url(#paint0_linear_344_6815)"/>
</g>
<g clip-path="url(#clip1_344_6815)">
<path d="M69.8576 76.7446C69.8576 76.7302 69.8576 76.7158 69.8576 76.6996C69.8452 74.7525 69.2005 72.8094 67.9311 71.2396C67.0447 70.1429 65.867 69.3433 64.7888 68.4456C63.8523 67.6667 63.127 66.6709 62.3511 65.7404C60.9482 64.1169 59.0988 63.0536 57.0782 62.5615C57.0511 62.5552 57.0241 62.5494 56.9988 62.5408C56.9152 62.5206 56.8317 62.4998 56.7464 62.4813C56.0499 62.3256 55.3347 62.2356 54.6241 62.2108C54.5405 62.205 54.4694 62.2027 54.4258 62.205C54.3735 62.205 54.2947 62.205 54.2029 62.2108C53.5499 62.2356 52.8935 62.3134 52.247 62.4444C50.7458 62.7317 49.3005 63.3259 48.0829 64.2444C47.0005 65.0602 46.1852 66.1321 45.3288 67.1608C43.6435 69.1817 41.1982 70.3131 39.9594 72.7333C39.5382 73.5594 39.2611 74.4386 39.117 75.3346C39.1005 75.435 39.0858 75.5371 39.0711 75.6398C39.0647 75.6911 39.0564 75.7442 39.0505 75.7956C39.0294 75.9779 39.017 76.1602 39.0088 76.3431C39.0088 76.3609 39.0064 76.3817 39.0064 76.4002C38.9982 76.5865 38.9982 76.7729 39.0047 76.9598C39.0047 76.9863 39.0047 77.0129 39.0047 77.0394C39.0105 77.2015 39.0211 77.3636 39.0358 77.5234C39.0441 77.6111 39.0523 77.6994 39.0629 77.7877C39.0735 77.8759 39.0858 77.9642 39.0982 78.0519C39.3235 79.5686 39.9341 81.03 40.9311 82.26C41.7629 83.2863 42.8558 84.0738 43.8817 84.8994C44.7841 85.6275 45.4747 86.5165 46.2105 87.4004C46.9864 88.3304 47.8723 89.1011 48.8499 89.7058C48.8547 89.7081 48.8564 89.7098 48.8605 89.7138C48.8647 89.7161 48.8688 89.7202 48.8752 89.7225C48.9235 89.7531 48.9711 89.7819 49.0211 89.8102C51.907 91.6183 55.8958 91.77 58.9523 90.2942C59.2717 90.1402 59.5782 89.9642 59.8723 89.7715C60.9688 89.1034 61.957 88.23 62.8394 87.1725C63.5835 86.2788 64.2988 85.4469 65.2099 84.7131C66.2441 83.8811 67.3117 83.0856 68.1164 82.02C69.2741 80.4871 69.8494 78.6381 69.8576 76.7896C69.8576 76.7729 69.8576 76.7567 69.8576 76.7406V76.7446ZM50.1741 88.8923C49.0023 87.9433 48.1747 86.6521 47.8494 85.2277C47.7994 85.0125 47.9517 84.8031 48.1747 84.7788C48.3417 84.7604 48.5082 84.7396 48.6752 84.7113C51.2982 84.2625 53.3188 82.6061 54.4052 80.4173C54.5111 80.6365 54.6241 80.8517 54.7488 81.0606C56.0147 83.1594 58.1829 84.4321 60.5458 84.754C60.5958 84.4425 60.6188 84.1269 60.6164 83.8113C59.1947 83.4548 57.9182 82.4648 57.0488 81.1898C55.4541 78.8515 55.2617 75.6704 56.5441 73.1515C57.2511 71.764 58.4999 70.4544 59.987 69.8498C60.5582 69.6179 61.1547 70.1181 61.0399 70.7146C60.7623 72.1558 59.9805 73.5 58.8088 74.4733C58.0517 75.1027 57.1929 75.5498 56.2941 75.8117C56.2588 76.1071 56.2417 76.4042 56.2417 76.7013C56.2417 76.7013 56.2399 76.7013 56.2376 76.7013C56.2376 76.7261 56.2376 76.7527 56.2399 76.7775C56.2399 76.7936 56.2399 76.8098 56.2399 76.8283C56.2399 76.8283 56.2399 76.8283 56.2417 76.8283C56.2458 77.1115 56.2629 77.3942 56.2964 77.6729C58.3311 78.2896 60.0617 79.8144 60.7958 81.8169C61.707 84.3011 60.8417 87.105 58.8088 88.7936C58.717 88.8698 58.6211 88.9413 58.5252 89.0111C55.9123 90.8209 52.6888 90.7142 50.1764 88.894L50.1741 88.8923ZM50.1741 64.609C52.9994 62.5494 56.4588 62.8483 59.007 64.8836C59.7952 65.5967 60.4223 66.4846 60.7917 67.4948C60.8852 67.7509 60.9582 68.0111 61.0147 68.2736C61.0588 68.4825 60.9105 68.6856 60.6958 68.7104C58.7023 68.9458 56.8088 69.8579 55.4829 71.4115C55.0494 71.9181 54.6905 72.4731 54.4052 73.0615C53.4958 71.2148 51.9217 69.7309 49.8217 69.0565C49.3217 68.8967 48.8088 68.7883 48.2911 68.7202C48.2458 69.0259 48.2247 69.3334 48.2311 69.6363C48.2394 69.6386 48.2499 69.6409 48.2582 69.6427C51.3899 70.4954 53.0894 73.7417 53.1435 76.7423C53.0935 79.4498 51.7817 82.2104 49.2341 83.4669C49.0982 83.5327 48.9647 83.5921 48.8294 83.6434C48.2664 83.8586 47.6805 83.3954 47.7829 82.8109V82.7988C48.2229 80.3498 50.1741 78.4027 52.5323 77.6752C52.5764 77.355 52.6011 77.0417 52.6076 76.7406C52.6011 76.4371 52.5723 76.1233 52.5282 75.81C51.9447 75.6375 51.3735 75.3854 50.8335 75.0433C48.6041 73.6309 47.3199 71.0792 47.7847 68.4784C48.0452 67.0194 48.8417 65.7381 49.9405 64.7873C50.0182 64.7256 50.0929 64.6621 50.1723 64.605L50.1741 64.609ZM67.5535 77.6094C67.337 79.7654 66.4341 81.4627 64.9429 82.7394C64.8429 82.8254 64.7452 82.9033 64.6488 82.9754C64.0905 83.3971 63.2876 83.0896 63.1247 82.4158C63.1247 82.4117 63.1229 82.4077 63.1205 82.4031C62.3429 79.2554 59.6011 77.3902 56.567 76.7631C57.397 76.5969 58.2017 76.3367 58.9505 75.9761C61.0082 74.9821 62.6017 73.1619 63.1205 71.0429C63.2811 70.3829 64.0676 70.0996 64.6305 70.4931C64.8364 70.6367 65.0305 70.7925 65.2164 70.9586C66.9052 72.754 67.8058 75.0802 67.5517 77.6071L67.5535 77.6094ZM43.6435 70.9604C43.8294 70.7948 44.0252 70.639 44.2299 70.4954C44.7929 70.1019 45.5788 70.3869 45.7394 71.0446C46.2582 73.1619 47.8517 74.9838 49.9094 75.9779C50.6582 76.3384 51.4629 76.5992 52.2929 76.7648C49.2588 77.3919 46.517 79.2554 45.7394 82.4054C45.7394 82.4094 45.737 82.4134 45.7352 82.4175C45.5705 83.0896 44.7676 83.3971 44.2111 82.9771C44.1152 82.9056 44.017 82.8277 43.917 82.7411C42.4258 81.4667 41.5235 79.7677 41.3064 77.6111C41.0517 75.0842 41.9529 72.7581 43.6417 70.9627L43.6435 70.9604Z" fill="white"/>
<path d="M79.9902 71.5137V71.8022H80.2838H81.5208V83.4837V83.7727H81.8144H83.3449H83.6385V83.4837V77.7872H92.5244C93.4432 77.7872 94.2349 77.471 94.8814 76.8387C95.5432 76.1995 95.8749 75.4166 95.8749 74.5045V73.0068C95.8749 72.1056 95.5473 71.3308 94.8932 70.6985C94.2402 70.0523 93.4449 69.7275 92.5244 69.7275H80.2838H79.9902V70.016V71.5137ZM92.5244 75.7091H83.6385V71.7987H92.5244C92.8585 71.7987 93.142 71.9147 93.3944 72.1575C93.6426 72.4045 93.7608 72.6843 93.7608 73.0068V74.5045C93.7608 74.8397 93.6414 75.1218 93.3961 75.3623C93.1708 75.5741 92.9161 75.6883 92.6255 75.7091H92.5244Z" fill="white" stroke="white" stroke-width="0.32" stroke-miterlimit="10"/>
<path d="M135.085 78.9958C135.085 78.127 134.78 77.3747 134.172 76.755C134.778 76.1314 135.082 75.3773 135.082 74.5045V73.0068C135.082 72.1056 134.754 71.3308 134.1 70.6985C133.447 70.0523 132.653 69.7275 131.731 69.7275H119.491H119.197V70.016V71.5137V71.8022H119.491H120.728V83.4837V83.4877V83.7762H121.021H122.552H122.845V83.4877V77.7912H131.731C132.065 77.7912 132.349 77.9072 132.601 78.15C132.849 78.397 132.968 78.6768 132.968 78.9993V80.497C132.968 81.4039 133.291 82.1833 133.938 82.8162C134.593 83.456 135.392 83.7762 136.322 83.7762H136.616V83.4877V81.99V81.7016H136.322C135.976 81.7016 135.687 81.5862 135.442 81.3537C135.202 81.1091 135.085 80.8293 135.085 80.4929V78.9958ZM131.731 75.7091H122.845V71.7987H131.731C132.065 71.7987 132.349 71.9147 132.601 72.1575C132.849 72.4045 132.968 72.6843 132.968 73.0068V74.5045C132.968 74.8397 132.848 75.1218 132.603 75.3623C132.378 75.5741 132.123 75.6883 131.832 75.7091H131.731Z" fill="white" stroke="white" stroke-width="0.32" stroke-miterlimit="10"/>
<path d="M182.529 83.4837V83.7727H182.823H185.137H185.319L185.4 83.6123L186.83 80.7779H195.648L197.104 83.6141L197.185 83.7727H197.366H199.651H199.944V83.4837V81.9866V81.6981H199.651H198.302L192.264 69.8868L192.183 69.7275H192.002H190.472H190.29L190.209 69.8868L184.173 81.6981H182.823H182.529V81.9866V83.4837ZM187.883 78.7073L191.233 72.1558L194.583 78.7073H187.883Z" fill="white" stroke="white" stroke-width="0.32" stroke-miterlimit="10"/>
<path d="M160.234 81.6981H159.939V81.9866V83.4837V83.4877V83.7762H160.234H163.294H163.588V83.4877V71.8056H164.678L173.695 83.6602L173.782 83.7762H173.929H178.517H178.811V83.4877V81.99V81.7016H178.517H177.281V71.8022H178.517H178.811V71.5137V70.016V69.7275H178.517H175.464H175.17V70.016L175.162 81.6981H174.838L165.821 69.8435L165.734 69.7275H165.587H160.234H159.939V70.016V71.5137V71.8022H160.234H161.47V81.6981H160.234Z" fill="white" stroke="white" stroke-width="0.32" stroke-miterlimit="10"/>
<path d="M101.124 83.4837V83.7727H101.418H115.184H115.478V83.4837V81.9797V81.6906H115.184H103.242V77.7872H110.597H110.89V77.4987V76.0016V75.7131H110.597H103.242V71.8022H115.184H115.478V71.5137V70.016V69.7275H115.184H99.8873H99.5938V70.016V71.5137V71.8022H99.8873H101.124V83.4837Z" fill="white" stroke="white" stroke-width="0.32" stroke-miterlimit="10"/>
<path d="M141.867 83.4837V83.7727H142.16H155.927H156.221V83.4837V81.9797V81.6906H155.927H143.985V77.7872H151.339H151.633V77.4987V76.0016V75.7131H151.339H143.985V71.8022H155.927H156.221V71.5137V70.016V69.7275H155.927H140.629H140.336V70.016V71.5137V71.8022H140.629H141.867V83.4837Z" fill="white" stroke="white" stroke-width="0.32" stroke-miterlimit="10"/>
</g>
</g>
<defs>
<linearGradient id="paint0_linear_344_6815" x1="0" y1="76.5" x2="238" y2="76.5" gradientUnits="userSpaceOnUse">
<stop stop-color="#504D61"/>
<stop offset="0.496118" stop-color="white"/>
<stop offset="1" stop-color="#504D61"/>
</linearGradient>
<clipPath id="clip0_344_6815">
<rect width="238" height="153" rx="16" fill="white"/>
</clipPath>
<clipPath id="clip1_344_6815">
<rect width="160" height="30" fill="white" transform="translate(39 62)"/>
</clipPath>
</defs>
</svg>
