<svg width="238" height="153" viewBox="0 0 238 153" fill="none" xmlns="http://www.w3.org/2000/svg">
<g clip-path="url(#clip0_346_6901)">
<rect width="340" height="153" fill="#CAFF1C"/>
<g style="mix-blend-mode:color-dodge" opacity="0.34">
<rect width="238" height="153" fill="url(#paint0_linear_346_6901)"/>
</g>
<path fill-rule="evenodd" clip-rule="evenodd" d="M79.04 78.2449C78.1296 90.3755 67.9682 99.9355 55.5669 99.9355C42.5664 99.9355 32.0273 89.4293 32.0273 76.4692C32.0273 63.5092 42.5664 53.0029 55.5669 53.0029C67.9479 53.0029 78.0964 62.5317 79.0355 74.6341H67.7813C70.238 69.2205 70.3867 64.302 67.7 62.0546C63.7324 58.7358 55.084 62.499 48.383 70.4599C41.6821 78.4209 39.4663 87.565 43.4339 90.8838C47.4015 94.2026 56.05 90.4394 62.7509 82.4785C63.9189 81.0909 64.9505 79.6673 65.837 78.2449H79.04Z" fill="black"/>
<path d="M57.334 78.2451H66.7472L63.1122 82.9913L57.334 80.6786V78.2451Z" fill="black"/>
<path d="M156.711 78.2842H159.072V86.4019L163.045 82.0685H165.936L162.041 86.0686L166.251 92.3627H163.516L160.429 87.7156L159.072 89.0882V92.3627H156.711V78.2842Z" fill="black"/>
<path d="M154.611 82.0098C154.709 82.0098 154.807 82.0294 154.925 82.0294C155.023 82.0294 155.142 82.049 155.28 82.049V84.402C155.122 84.3824 154.964 84.3627 154.846 84.3627C154.709 84.3627 154.571 84.3431 154.414 84.3431C153.627 84.3431 152.978 84.5981 152.506 85.0687C152.014 85.5393 151.778 86.1667 151.778 86.951V92.3628H149.418V82.0686H151.778V83.5981C152.014 83.1275 152.368 82.7353 152.88 82.4412C153.391 82.1667 153.962 82.0098 154.611 82.0098Z" fill="black"/>
<path d="M146.595 83.4406C147.028 83.9112 147.343 84.4799 147.579 85.1269C147.795 85.774 147.913 86.4799 147.913 87.225C147.913 87.9897 147.795 88.6956 147.579 89.3426C147.343 89.9897 147.028 90.5388 146.595 91.0094C146.123 91.5192 145.592 91.9113 144.963 92.1858C144.333 92.4603 143.665 92.5779 142.937 92.5779C142.189 92.5779 141.521 92.4603 140.891 92.1858C140.262 91.9113 139.73 91.5192 139.278 91.0094C138.846 90.5388 138.511 89.9897 138.295 89.3426C138.059 88.6956 137.961 87.9897 137.961 87.225C137.961 86.4799 138.059 85.774 138.295 85.1269C138.511 84.4799 138.846 83.9112 139.278 83.4406C139.73 82.9308 140.262 82.5583 140.891 82.2838C141.521 82.0093 142.189 81.8721 142.937 81.8721C143.665 81.8721 144.333 82.0093 144.963 82.2838C145.592 82.5583 146.123 82.9308 146.595 83.4406ZM142.937 83.8525C142.13 83.8525 141.501 84.1662 141.029 84.7544C140.557 85.3623 140.341 86.1858 140.341 87.225C140.341 88.2838 140.557 89.1074 141.029 89.6956C141.501 90.3034 142.13 90.5976 142.937 90.5976C143.724 90.5976 144.353 90.3034 144.825 89.6956C145.297 89.1074 145.533 88.2838 145.533 87.225C145.533 86.1858 145.297 85.3623 144.825 84.7544C144.353 84.1662 143.724 83.8525 142.937 83.8525Z" fill="black"/>
<path d="M127.827 88.8919L129.656 82.0684H131.603L133.452 88.8919L135.281 82.0684H137.621L134.514 92.3626H132.468L130.58 85.6174L128.692 92.3626H126.647L123.539 82.0684H125.958L127.827 88.8919Z" fill="black"/>
<path d="M120.924 92.4804C119.822 92.4804 119.055 92.2842 118.583 91.8528C118.111 91.4215 117.895 90.7352 117.895 89.7744V84.0685H116.459V82.0685H117.895V79.0488H120.215V82.0685H122.379V84.0685H120.215V89.4019C120.215 89.7744 120.294 90.0293 120.492 90.1862C120.668 90.343 121.042 90.4214 121.593 90.4214C121.75 90.4214 121.888 90.4214 122.026 90.4214C122.143 90.4214 122.32 90.4019 122.556 90.3627V92.3431C122.32 92.3823 122.045 92.4215 121.77 92.4411C121.474 92.4804 121.199 92.4804 120.924 92.4804Z" fill="black"/>
<path d="M111.225 92.578C110.477 92.578 109.808 92.4604 109.179 92.1859C108.55 91.9114 107.999 91.5388 107.546 91.029C107.114 90.5584 106.779 89.9898 106.543 89.3427C106.307 88.6956 106.209 87.9898 106.209 87.225C106.209 86.5192 106.307 85.8329 106.543 85.1859C106.779 84.5388 107.094 83.9702 107.527 83.4799C107.979 82.9701 108.51 82.5584 109.14 82.2839C109.749 82.0093 110.418 81.8721 111.126 81.8721C112.523 81.8721 113.644 82.3427 114.47 83.2839C115.296 84.225 115.709 85.4408 115.709 86.9506V87.7349H108.471C108.55 88.6172 108.845 89.3035 109.336 89.8133C109.828 90.3232 110.457 90.5781 111.225 90.5781C111.815 90.5781 112.306 90.4408 112.739 90.1467C113.172 89.8525 113.467 89.4408 113.624 88.931L115.65 89.6957C115.276 90.5976 114.706 91.3036 113.919 91.8133C113.133 92.3231 112.247 92.578 111.225 92.578ZM111.107 83.8525C110.477 83.8525 109.926 84.0486 109.494 84.4015C109.061 84.774 108.746 85.3035 108.589 85.9702H113.329C113.31 85.3427 113.113 84.8329 112.719 84.4407C112.326 84.0486 111.775 83.8525 111.107 83.8525Z" fill="black"/>
<path d="M102.275 78.2842H104.695V92.3627H102.492L95.4896 82.0293V92.3627H93.0703V78.2842H95.6666L102.275 88.147V78.2842Z" fill="black"/>
<path d="M203.753 64.2773C203.851 64.2773 203.95 64.2969 204.068 64.2969C204.166 64.2969 204.284 64.3166 204.421 64.3166V66.6695C204.264 66.6499 204.107 66.6303 203.989 66.6303C203.851 66.6303 203.714 66.6107 203.557 66.6107C202.769 66.6107 202.12 66.8656 201.648 67.3362C201.157 67.8068 200.92 68.4342 200.92 69.2186V74.6303H198.561V64.3362H200.92V65.8656C201.157 65.395 201.511 65.0029 202.022 64.7087C202.534 64.4342 203.104 64.2773 203.753 64.2773Z" fill="black"/>
<path d="M193.913 73.6505C193.579 74.023 193.146 74.3172 192.615 74.5133C192.084 74.7093 191.494 74.8074 190.845 74.8074C189.822 74.8074 188.996 74.5328 188.347 73.9642C187.678 73.3956 187.363 72.6701 187.363 71.7681C187.363 70.925 187.639 70.2387 188.209 69.7093C188.76 69.1798 189.645 68.7877 190.825 68.5328L193.677 67.9446V67.7681C193.677 67.2583 193.52 66.8661 193.225 66.5916C192.93 66.3171 192.497 66.1799 191.907 66.1799C191.356 66.1799 190.924 66.3171 190.609 66.5524C190.295 66.7877 190.058 67.1799 189.92 67.6897L187.698 67.1799C187.974 66.2583 188.485 65.5131 189.252 64.9641C190.018 64.4151 190.943 64.1406 192.005 64.1406C193.284 64.1406 194.268 64.4544 194.955 65.0622C195.625 65.6701 195.978 66.5524 195.978 67.6897V72.1211C195.978 72.4152 196.037 72.6113 196.175 72.7093C196.313 72.827 196.549 72.8465 196.884 72.8073V74.6309C196.037 74.729 195.369 74.6897 194.897 74.5328C194.425 74.376 194.091 74.0819 193.913 73.6505ZM191.199 72.925C191.907 72.925 192.497 72.7485 192.97 72.3956C193.441 72.0426 193.677 71.5916 193.677 71.0034V69.7485L191.455 70.2191C190.806 70.376 190.354 70.5524 190.097 70.7681C189.822 71.0034 189.704 71.2975 189.704 71.6701C189.704 72.0622 189.822 72.376 190.097 72.5916C190.373 72.827 190.727 72.925 191.199 72.925Z" fill="black"/>
<path d="M183.27 60.5527H185.629V74.6313H183.27V60.5527Z" fill="black"/>
<path d="M178.43 60.5527H180.79V74.6313H178.43V60.5527Z" fill="black"/>
<path d="M175.274 65.7093C175.707 66.1799 176.021 66.7485 176.257 67.3956C176.473 68.0426 176.592 68.7485 176.592 69.4936C176.592 70.2583 176.473 70.9642 176.257 71.6113C176.021 72.2583 175.707 72.8073 175.274 73.2779C174.802 73.7877 174.271 74.1799 173.641 74.4544C173.012 74.729 172.343 74.8466 171.616 74.8466C170.868 74.8466 170.199 74.729 169.57 74.4544C168.94 74.1799 168.409 73.7877 167.957 73.2779C167.524 72.8073 167.19 72.2583 166.974 71.6113C166.738 70.9642 166.639 70.2583 166.639 69.4936C166.639 68.7485 166.738 68.0426 166.974 67.3956C167.19 66.7485 167.524 66.1799 167.957 65.7093C168.409 65.1995 168.94 64.8269 169.57 64.5524C170.199 64.2779 170.868 64.1406 171.616 64.1406C172.343 64.1406 173.012 64.2779 173.641 64.5524C174.271 64.8269 174.802 65.1995 175.274 65.7093ZM171.616 66.121C170.809 66.121 170.179 66.4348 169.707 67.023C169.236 67.6308 169.019 68.4544 169.019 69.4936C169.019 70.5524 169.236 71.3759 169.707 71.9642C170.179 72.5721 170.809 72.8662 171.616 72.8662C172.402 72.8662 173.032 72.5721 173.503 71.9642C173.975 71.3759 174.212 70.5524 174.212 69.4936C174.212 68.4544 173.975 67.6308 173.503 67.023C173.032 66.4348 172.402 66.121 171.616 66.121Z" fill="black"/>
<path d="M158.316 74.6313H153.596V60.5527H158.316C159.378 60.5527 160.362 60.7292 161.248 61.0429C162.112 61.3567 162.86 61.8273 163.49 62.4547C164.119 63.0822 164.591 63.8272 164.926 64.69C165.24 65.5724 165.417 66.5332 165.417 67.592C165.417 68.6509 165.24 69.6313 164.926 70.494C164.591 71.3763 164.119 72.1214 163.49 72.7293C162.86 73.3567 162.112 73.8469 161.248 74.1607C160.362 74.4744 159.378 74.6313 158.316 74.6313ZM156.055 62.7096V72.4744H158.316C159.733 72.4744 160.873 72.043 161.7 71.1606C162.526 70.2979 162.939 69.1018 162.939 67.592C162.939 66.0822 162.526 64.8861 161.7 64.0234C160.873 63.1606 159.733 62.7096 158.297 62.7096H156.055Z" fill="black"/>
<path d="M144.629 60.5527H146.99V74.6313H144.629V60.5527Z" fill="black"/>
<path d="M140.015 73.6505C139.681 74.023 139.247 74.3172 138.717 74.5133C138.186 74.7093 137.595 74.8074 136.947 74.8074C135.924 74.8074 135.097 74.5328 134.449 73.9642C133.78 73.3956 133.465 72.6701 133.465 71.7681C133.465 70.925 133.74 70.2387 134.311 69.7093C134.862 69.1798 135.747 68.7877 136.927 68.5328L139.779 67.9446V67.7681C139.779 67.2583 139.622 66.8661 139.326 66.5916C139.031 66.3171 138.599 66.1799 138.008 66.1799C137.458 66.1799 137.025 66.3171 136.71 66.5524C136.395 66.7877 136.16 67.1799 136.022 67.6897L133.799 67.1799C134.074 66.2583 134.586 65.5131 135.353 64.9641C136.12 64.4151 137.045 64.1406 138.107 64.1406C139.386 64.1406 140.368 64.4544 141.057 65.0622C141.726 65.6701 142.08 66.5524 142.08 67.6897V72.1211C142.08 72.4152 142.139 72.6113 142.277 72.7093C142.414 72.827 142.65 72.8465 142.984 72.8073V74.6309C142.139 74.729 141.47 74.6897 140.998 74.5328C140.526 74.376 140.192 74.0819 140.015 73.6505ZM137.301 72.925C138.008 72.925 138.599 72.7485 139.07 72.3956C139.543 72.0426 139.779 71.5916 139.779 71.0034V69.7485L137.556 70.2191C136.907 70.376 136.454 70.5524 136.199 70.7681C135.924 71.0034 135.806 71.2975 135.806 71.6701C135.806 72.0622 135.924 72.376 136.199 72.5916C136.474 72.827 136.829 72.925 137.301 72.925Z" fill="black"/>
<path d="M131.131 73.1999C130.718 73.7489 130.227 74.1607 129.636 74.4352C129.046 74.7097 128.417 74.847 127.729 74.847C127.099 74.847 126.548 74.7489 126.036 74.5136C125.526 74.2979 125.113 73.9842 124.758 73.5528V74.6313H122.398V60.5527H124.758V65.4351C125.113 65.0234 125.526 64.7096 126.036 64.4743C126.548 64.2586 127.099 64.141 127.729 64.141C128.417 64.141 129.046 64.2979 129.636 64.5724C130.227 64.8469 130.718 65.2586 131.131 65.7881C131.486 66.2783 131.78 66.8469 131.977 67.4744C132.173 68.1018 132.272 68.7881 132.272 69.494C132.272 70.2195 132.173 70.9057 131.977 71.5332C131.78 72.1606 131.486 72.7293 131.131 73.1999ZM127.256 66.1998C126.47 66.1998 125.86 66.4743 125.388 67.0233C124.916 67.5724 124.699 68.2979 124.699 69.1999V69.8077C124.699 70.7097 124.936 71.4352 125.408 71.9842C125.879 72.5332 126.49 72.7881 127.256 72.7881C128.082 72.7881 128.712 72.494 129.184 71.9058C129.656 71.3176 129.892 70.5136 129.892 69.494C129.892 68.4744 129.656 67.6704 129.184 67.0822C128.712 66.494 128.082 66.1998 127.256 66.1998Z" fill="black"/>
<path d="M119.557 65.7093C119.989 66.1799 120.304 66.7485 120.54 67.3956C120.757 68.0426 120.875 68.7485 120.875 69.4936C120.875 70.2583 120.757 70.9642 120.54 71.6113C120.304 72.2583 119.989 72.8073 119.557 73.2779C119.084 73.7877 118.553 74.1799 117.924 74.4544C117.295 74.729 116.626 74.8466 115.898 74.8466C115.151 74.8466 114.482 74.729 113.853 74.4544C113.223 74.1799 112.692 73.7877 112.24 73.2779C111.807 72.8073 111.473 72.2583 111.256 71.6113C111.02 70.9642 110.922 70.2583 110.922 69.4936C110.922 68.7485 111.02 68.0426 111.256 67.3956C111.473 66.7485 111.807 66.1799 112.24 65.7093C112.692 65.1995 113.223 64.8269 113.853 64.5524C114.482 64.2779 115.151 64.1406 115.898 64.1406C116.626 64.1406 117.295 64.2779 117.924 64.5524C118.553 64.8269 119.084 65.1995 119.557 65.7093ZM115.898 66.121C115.092 66.121 114.462 66.4348 113.99 67.023C113.518 67.6308 113.302 68.4544 113.302 69.4936C113.302 70.5524 113.518 71.3759 113.99 71.9642C114.462 72.5721 115.092 72.8662 115.898 72.8662C116.685 72.8662 117.314 72.5721 117.786 71.9642C118.258 71.3759 118.495 70.5524 118.495 69.4936C118.495 68.4544 118.258 67.6308 117.786 67.023C117.314 66.4348 116.685 66.121 115.898 66.121Z" fill="black"/>
<path d="M106.928 60.5527H109.288V74.6313H106.928V60.5527Z" fill="black"/>
<path d="M104.812 74.6312H102.511V73.1801C102.196 73.69 101.704 74.1017 101.036 74.3958C100.347 74.7096 99.58 74.8468 98.7146 74.8468C97.7704 74.8468 96.8853 74.6704 96.0789 74.2782C95.2724 73.9057 94.5841 73.3566 93.994 72.6508C93.4433 72.0232 93.0302 71.2782 92.7548 70.4155C92.4794 69.5527 92.3418 68.6311 92.3418 67.6507C92.3418 66.6703 92.4794 65.7291 92.7745 64.8468C93.0695 63.984 93.5022 63.1997 94.053 62.533C94.643 61.8271 95.3708 61.2977 96.1969 60.9055C97.023 60.533 97.9082 60.3369 98.8719 60.3369C100.249 60.3369 101.449 60.6899 102.432 61.3957C103.416 62.1016 104.124 63.0821 104.576 64.3762L102.176 65.1801C101.96 64.3565 101.567 63.7095 100.996 63.2389C100.426 62.788 99.7177 62.5526 98.8916 62.5526C97.6918 62.5526 96.728 63.0232 95.9806 63.9644C95.2331 64.9055 94.8594 66.1212 94.8594 67.6115C94.8594 69.1409 95.2331 70.3566 95.9806 71.2978C96.728 72.2389 97.7115 72.69 98.931 72.69C99.9144 72.69 100.741 72.3762 101.37 71.7488C101.999 71.1213 102.353 70.2782 102.393 69.239H98.6753V67.0429H104.812V74.6312Z" fill="black"/>
</g>
<defs>
<linearGradient id="paint0_linear_346_6901" x1="0" y1="76.5" x2="238" y2="76.5" gradientUnits="userSpaceOnUse">
<stop stop-color="#504D61"/>
<stop offset="0.496118" stop-color="white"/>
<stop offset="1" stop-color="#504D61"/>
</linearGradient>
<clipPath id="clip0_346_6901">
<rect width="238" height="153" rx="16" fill="white"/>
</clipPath>
</defs>
</svg>
