<svg width="238" height="153" viewBox="0 0 238 153" fill="none" xmlns="http://www.w3.org/2000/svg">
<g clip-path="url(#clip0_225_79810)">
<path d="M0 0H340V153H0V0Z" fill="#FFEF46"/>
<path d="M0 0H340V153H0V0Z" fill="black" fill-opacity="0.2"/>
<g style="mix-blend-mode:color-dodge" opacity="0.34">
<rect width="238" height="153" fill="url(#paint0_linear_225_79810)"/>
</g>
<g clip-path="url(#clip1_225_79810)">
<path d="M180.743 80.4182V72.4476C183.479 72.6928 185.878 73.592 187.308 74.614V77.5569L180.828 82.0121C180.785 81.4807 180.743 80.9493 180.743 80.4182ZM173.757 82.2982C173.757 89.9827 178.555 93.9882 183.942 93.9882C187.266 93.9882 189.328 92.5167 194 88.0208V85.1595C192.527 86.6309 191.054 87.8162 189.328 89.0016C185.457 88.8382 182.805 87.2849 181.543 84.5464L194 75.9219V70.7308C191.264 68.6871 187.687 67.2974 184.11 67.2974C181.627 68.9324 178.849 71.5892 176.745 73.8782C174.515 76.2897 173.757 78.3744 173.757 82.2982ZM142.362 83.6063L149.306 78.824V88.7562H147.875C144.382 88.7562 142.488 86.917 142.362 83.6063ZM136.218 77.0255H142.194V72.2842C145.771 72.0389 148.001 73.3059 149.306 75.0226V75.7993L136.428 84.7097C135.292 90.2277 139.079 93.9882 142.867 93.9882C144.887 93.9882 147.286 92.8848 148.885 90.5958H149.306V93.5795H157.512C156.545 92.7211 155.997 91.9036 155.997 87.6118L155.955 72.4884C153.978 68.6054 149.895 67.2973 147.875 67.2973C145.645 67.2973 140.51 71.0169 138.701 72.2842C136.681 73.7146 136.218 75.1862 136.218 77.0255ZM125.907 65.6217H126.075C127.127 65.6217 127.885 66.2756 127.885 68.5237V87.244C127.885 91.5766 127.338 92.5576 126.37 93.5795H136.091C135.123 92.5576 134.576 91.5766 134.576 87.244V59.3678H134.071L125.907 65.6217ZM109.241 76.1671H113.955V87.244C113.955 91.5766 113.408 92.5576 112.44 93.5795H122.582C121.362 92.5576 120.646 91.5766 120.646 87.244V76.1671H125.36V71.2622H120.352L117.027 65.0902H122.077C123.298 65.0902 124.097 64.845 124.813 64.2727L131.209 59.3678H120.688L113.955 65.2536V71.7119L109.241 76.1671ZM99.9828 65.6217H100.151C101.203 65.6217 101.961 66.2756 101.961 68.5237V87.244C101.961 91.5766 101.414 92.5576 100.446 93.5795H110.167C109.199 92.5576 108.652 91.5766 108.652 87.244V59.3678H108.147L99.9828 65.6217ZM84.9162 80.6632V72.4475C89.7562 72.2842 93.3754 74.7774 93.3754 80.6223V88.8382C88.3673 89.0016 84.9162 86.5084 84.9162 80.6632ZM77.8883 82.2982C77.8883 90.6775 83.4853 94.2335 90.0506 93.9882C92.4917 92.3124 95.3113 89.6556 97.4154 87.4075C99.6462 84.9958 100.404 82.9112 100.404 78.9875C100.404 70.6083 94.8062 67.0521 88.2409 67.2973C85.8421 69.0141 82.9805 71.63 80.8762 73.8781C78.6456 76.2897 77.8883 78.3744 77.8883 82.2982ZM60.0864 77.8839L62.5692 75.554L67.1987 77.0255C70.2288 78.0063 71.7438 79.8048 71.7438 82.3391C71.7438 84.2601 70.9864 85.5272 69.4713 87.1623L69.0083 87.6528L69.1768 86.5084C69.8501 82.3391 68.5875 80.5406 64.4211 79.2326L60.0864 77.8839ZM53.8578 63.6188L66.4834 67.7062L63.7477 70.2402L57.1825 68.1149C54.91 67.3792 54.1524 66.1939 53.8578 63.7005L53.8578 63.6188ZM53.1004 84.3827L55.962 81.726L61.3488 83.4427C64.1686 84.342 65.1366 85.5272 64.8419 88.5112L53.1004 84.3827ZM49.4811 72.5292C49.4811 71.7528 49.9019 71.0169 50.6172 70.4038C51.3749 71.4666 52.6794 72.4067 54.7416 73.0606L59.2026 74.4912L56.7196 76.8211L52.3428 75.4313C50.3226 74.7774 49.4811 73.7965 49.4811 72.5292ZM43 89.6146L44.8517 91.5359L47.8397 88.879L62.6956 93.9882C71.9543 88.0208 76.9202 83.9741 76.9202 78.9875C76.9202 75.6766 74.9002 73.8373 70.4392 72.4067L67.0726 71.3031L76.2889 62.7196L74.4372 60.7984L71.7017 63.1282L58.7818 59C54.7836 60.267 49.7334 63.9866 49.7334 67.7062C49.7334 68.1149 49.7757 68.5237 49.9018 68.9732C46.5772 70.8125 45.2304 72.5292 45.2304 74.6548C45.2304 76.6577 46.3246 78.6605 49.8177 79.7639L52.5953 80.6632L43 89.6146ZM159.448 93.5795H170.012C168.539 92.6394 167.655 91.6992 167.655 87.2031V73.9599L171.106 74.8182C172.495 75.1452 173.126 75.0226 174.262 73.8782L180.322 67.7062H172.242L167.907 72.0797H167.529L166.813 67.2974H166.308L157.05 75.4313H159.995C160.543 75.4313 160.963 75.8403 160.963 76.3715V87.2031C160.963 91.6992 160.416 92.6394 159.448 93.5795Z" fill="#02050A"/>
</g>
</g>
<defs>
<linearGradient id="paint0_linear_225_79810" x1="0" y1="76.5" x2="238" y2="76.5" gradientUnits="userSpaceOnUse">
<stop stop-color="#504D61"/>
<stop offset="0.496118" stop-color="white"/>
<stop offset="1" stop-color="#504D61"/>
</linearGradient>
<clipPath id="clip0_225_79810">
<rect width="238" height="153" rx="16" fill="white"/>
</clipPath>
<clipPath id="clip1_225_79810">
<rect width="151" height="35" fill="white" transform="translate(43 59)"/>
</clipPath>
</defs>
</svg>
