<svg width="238" height="153" viewBox="0 0 238 153" fill="none" xmlns="http://www.w3.org/2000/svg">
<g clip-path="url(#clip0_377_16820)">
<rect width="340" height="153" fill="#121212"/>
<g style="mix-blend-mode:color-dodge" opacity="0.34">
<rect width="238" height="153" fill="url(#paint0_linear_377_16820)"/>
</g>
<g clip-path="url(#clip1_377_16820)">
<path d="M65.8722 83.8266C66.1223 84.5739 66.2783 85.1354 66.2783 85.4774C66.2783 85.7885 65.8413 85.9757 65.1865 86.0376L64.2815 86.1319C64.0637 86.2867 64.0933 86.7849 64.3447 86.9088C65.2497 86.8778 66.4343 86.8159 67.9322 86.8159C69.336 86.8159 70.4292 86.8469 71.7079 86.9102C71.8639 86.7849 71.9271 86.2867 71.7079 86.1305L70.8662 86.0376C69.5242 85.8814 69.1182 85.4155 68.2132 82.7386L63.9373 70.2212C63.4707 68.8518 62.9705 67.4204 62.5658 66.0496C62.5026 65.8315 62.2821 65.7695 62.0979 65.7695C61.7536 66.1735 61.2238 66.735 60.4749 66.9531C60.569 67.4514 60.3808 68.0425 59.9438 69.1628L56.761 77.5692C55.4514 81.0568 54.5774 83.0793 54.0153 84.512C53.5783 85.6323 52.8925 85.9757 52.1436 86.0376L51.1136 86.1319C50.9253 86.2867 50.9885 86.7849 51.1754 86.9088C52.0185 86.8778 53.1413 86.8159 54.1713 86.8159C55.6383 86.8469 56.6051 86.8469 57.4172 86.9102C57.6982 86.7849 57.6982 86.2867 57.4791 86.1305L56.4491 86.0376C55.7001 85.9757 55.5441 85.7885 55.5441 85.4155C55.5441 85.0721 55.7633 84.2319 56.2299 82.8301L57.3231 79.5621C57.5423 78.9077 57.7292 78.8148 58.509 78.8148H63.2206C64.1565 78.8148 64.2829 78.909 64.5007 79.5931L65.8722 83.8266ZM60.2893 71.4048C60.6322 70.4703 60.9442 69.723 61.0383 69.5681H61.1001C61.2884 69.9411 61.5681 70.7827 61.8182 71.5287L63.503 76.6051C63.784 77.4453 63.7208 77.5692 62.8172 77.5692H58.9756C58.1016 77.5692 58.0707 77.5382 58.3208 76.8219L60.2866 71.4048H60.2893ZM83.0418 68.2606C83.0418 67.2642 83.0727 67.139 84.7266 67.139C87.9725 67.139 89.7501 69.1009 89.7501 72.1211C89.7501 74.829 88.5332 76.729 85.165 77.3511C84.9767 77.413 84.9767 77.8803 85.1945 77.9745C86.4746 77.9745 88.1285 77.6931 89.5014 77.04C90.8433 76.3856 92.6209 74.9529 92.6209 72.0902C92.6209 69.9411 91.56 68.3226 90.1253 67.419C88.6596 66.5169 86.7234 66.1748 84.1336 66.1748C81.5439 66.1748 79.6089 66.2058 77.9551 66.4239C77.7063 66.5478 77.6754 67.0151 77.8932 67.2022L79.016 67.3261C80.4211 67.4823 80.483 68.0115 80.483 70.6575V82.1461C80.483 85.4155 80.4211 85.7885 78.6112 86.0376L77.9551 86.1319C77.7682 86.3177 77.8313 86.8159 78.0183 86.9088C79.2862 86.8475 80.5555 86.8165 81.8249 86.8159C83.0727 86.8159 84.1027 86.8469 85.8816 86.9102C86.0685 86.8159 86.1317 86.2867 85.9435 86.1305L85.1017 86.0376C83.1036 85.8195 83.0418 85.4155 83.0418 82.1461V68.2606ZM107.612 87.9995C113.635 87.9995 118.44 83.4213 118.44 77.1329C118.44 71.6526 114.821 66.4549 107.612 66.4549C101.185 66.4549 96.5042 71.2176 96.5042 77.4453C96.5042 83.0483 100.686 87.9995 107.612 87.9995ZM108.018 87.034C101.871 87.034 99.6237 81.0554 99.6237 76.4489C99.6237 69.6301 103.836 67.419 107.082 67.419C113.042 67.419 115.32 72.9614 115.32 78.0984C115.32 84.2319 111.762 87.034 108.018 87.034ZM126.484 82.1461C126.484 85.4155 126.422 85.8504 124.612 86.0376L123.676 86.1319C123.488 86.3177 123.551 86.8159 123.738 86.9088C125.486 86.8469 126.484 86.8159 127.795 86.8159H130.666C133.88 86.8159 136.844 86.8469 138.435 86.9102C138.872 86.0686 139.746 82.8934 139.746 82.5501C139.746 82.3333 139.154 82.208 138.966 82.3642C138.342 83.9518 137.53 85.0721 136.906 85.4465C136.407 85.7265 135.752 85.8504 133.101 85.8504C130.635 85.8504 130.042 85.4774 129.699 85.1354C129.137 84.5429 129.043 83.7337 129.043 81.7718V70.9375C129.043 67.6681 129.106 67.1699 130.947 67.0151L131.696 66.9531C131.883 66.8279 131.821 66.2664 131.633 66.1748C130.073 66.2368 129.012 66.2677 127.795 66.2677C126.547 66.2677 125.486 66.2368 123.738 66.1735C123.55 66.2677 123.489 66.8279 123.676 66.9531L124.456 67.0151C126.422 67.1699 126.484 67.6681 126.484 70.9375V82.1461ZM147.934 82.1461C147.934 85.4155 147.87 85.8504 146.061 86.0376L145.125 86.1319C144.936 86.3177 145 86.8159 145.186 86.9088C146.935 86.8469 147.934 86.8159 149.243 86.8159H152.114C155.328 86.8159 158.293 86.8469 159.885 86.9102C160.322 86.0686 161.194 82.8934 161.194 82.5501C161.194 82.3333 160.603 82.208 160.414 82.3642C159.79 83.9518 158.98 85.0721 158.356 85.4465C157.856 85.7265 157.199 85.8504 154.548 85.8504C152.083 85.8504 151.49 85.4774 151.146 85.1354C150.585 84.5429 150.492 83.7337 150.492 81.7718V70.9375C150.492 67.6681 150.554 67.1699 152.395 67.0151L153.144 66.9531C153.332 66.8279 153.269 66.2664 153.082 66.1748C151.522 66.2368 150.46 66.2677 149.243 66.2677C147.995 66.2677 146.935 66.2368 145.186 66.1735C145 66.2677 144.938 66.8279 145.125 66.9531L145.905 67.0151C147.87 67.1699 147.934 67.6681 147.934 70.9375V82.1461ZM175.513 87.9995C181.536 87.9995 186.341 83.4213 186.341 77.1329C186.341 71.6526 182.722 66.4549 175.513 66.4549C169.086 66.4549 164.405 71.2176 164.405 77.4453C164.405 83.0483 168.587 87.9995 175.513 87.9995ZM175.919 87.034C169.772 87.034 167.525 81.0554 167.525 76.4489C167.525 69.6301 171.737 67.419 174.983 67.419C180.943 67.419 183.221 72.9614 183.221 78.0984C183.221 84.2319 179.664 87.034 175.919 87.034Z" fill="white"/>
</g>
</g>
<defs>
<linearGradient id="paint0_linear_377_16820" x1="0" y1="76.5" x2="238" y2="76.5" gradientUnits="userSpaceOnUse">
<stop stop-color="#504D61"/>
<stop offset="0.496118" stop-color="#CBCBCB"/>
<stop offset="1" stop-color="#504D61"/>
</linearGradient>
<clipPath id="clip0_377_16820">
<rect width="238" height="153" rx="16" fill="white"/>
</clipPath>
<clipPath id="clip1_377_16820">
<rect width="136" height="23" fill="white" transform="translate(51 65)"/>
</clipPath>
</defs>
</svg>
