<svg width="1724" height="344" viewBox="0 0 1724 344" fill="none" xmlns="http://www.w3.org/2000/svg">
<mask id="path-1-inside-1_225_100588" fill="white">
<path d="M0 0H86V86H0V0Z"/>
<path d="M86 0H173V86H86V0Z"/>
<path d="M173 0H259V86H173V0Z"/>
<path d="M259 0H345V86H259V0Z"/>
<path d="M345 0H432V86H345V0Z"/>
<path d="M432 0H518V86H432V0Z"/>
<path d="M518 0H604V86H518V0Z"/>
<path d="M604 0H691V86H604V0Z"/>
<path d="M691 0H777V86H691V0Z"/>
<path d="M777 0H863V86H777V0Z"/>
<path d="M864 0H950V86H864V0Z"/>
<path d="M950 0H1036V86H950V0Z"/>
<path d="M1036 0H1123V86H1036V0Z"/>
<path d="M1123 0H1209V86H1123V0Z"/>
<path d="M1209 0H1295V86H1209V0Z"/>
<path d="M1295 0H1382V86H1295V0Z"/>
<path d="M1382 0H1468V86H1382V0Z"/>
<path d="M1468 0H1554V86H1468V0Z"/>
<path d="M1554 0H1641V86H1554V0Z"/>
<path d="M1641 0H1727V86H1641V0Z"/>
<path d="M0 86H86V172H0V86Z"/>
<path d="M86 86H173V172H86V86Z"/>
<path d="M173 86H259V172H173V86Z"/>
<path d="M259 86H345V172H259V86Z"/>
<path d="M345 86H432V172H345V86Z"/>
<path d="M432 86H518V172H432V86Z"/>
<path d="M518 86H604V172H518V86Z"/>
<path d="M604 86H691V172H604V86Z"/>
<path d="M691 86H777V172H691V86Z"/>
<path d="M777 86H863V172H777V86Z"/>
<path d="M864 86H950V172H864V86Z"/>
<path d="M950 86H1036V172H950V86Z"/>
<path d="M1036 86H1123V172H1036V86Z"/>
<path d="M1123 86H1209V172H1123V86Z"/>
<path d="M1209 86H1295V172H1209V86Z"/>
<path d="M1295 86H1382V172H1295V86Z"/>
<path d="M1382 86H1468V172H1382V86Z"/>
<path d="M1468 86H1554V172H1468V86Z"/>
<path d="M1554 86H1641V172H1554V86Z"/>
<path d="M1641 86H1727V172H1641V86Z"/>
<path d="M0 172H86V258H0V172Z"/>
<path d="M86 172H173V258H86V172Z"/>
<path d="M173 172H259V258H173V172Z"/>
<path d="M259 172H345V258H259V172Z"/>
<path d="M345 172H432V258H345V172Z"/>
<path d="M432 172H518V258H432V172Z"/>
<path d="M518 172H604V258H518V172Z"/>
<path d="M604 172H691V258H604V172Z"/>
<path d="M691 172H777V258H691V172Z"/>
<path d="M777 172H863V258H777V172Z"/>
<path d="M864 172H950V258H864V172Z"/>
<path d="M950 172H1036V258H950V172Z"/>
<path d="M1036 172H1123V258H1036V172Z"/>
<path d="M1123 172H1209V258H1123V172Z"/>
<path d="M1209 172H1295V258H1209V172Z"/>
<path d="M1295 172H1382V258H1295V172Z"/>
<path d="M1382 172H1468V258H1382V172Z"/>
<path d="M1468 172H1554V258H1468V172Z"/>
<path d="M1554 172H1641V258H1554V172Z"/>
<path d="M1641 172H1727V258H1641V172Z"/>
<path d="M0 258H86V344H0V258Z"/>
<path d="M86 258H173V344H86V258Z"/>
<path d="M173 258H259V344H173V258Z"/>
<path d="M259 258H345V344H259V258Z"/>
<path d="M345 258H432V344H345V258Z"/>
<path d="M432 258H518V344H432V258Z"/>
<path d="M518 258H604V344H518V258Z"/>
<path d="M604 258H691V344H604V258Z"/>
<path d="M691 258H777V344H691V258Z"/>
<path d="M777 258H863V344H777V258Z"/>
<path d="M864 258H950V344H864V258Z"/>
<path d="M950 258H1036V344H950V258Z"/>
<path d="M1036 258H1123V344H1036V258Z"/>
<path d="M1123 258H1209V344H1123V258Z"/>
<path d="M1209 258H1295V344H1209V258Z"/>
<path d="M1295 258H1382V344H1295V258Z"/>
<path d="M1382 258H1468V344H1382V258Z"/>
<path d="M1468 258H1554V344H1468V258Z"/>
<path d="M1554 258H1641V344H1554V258Z"/>
<path d="M1641 258H1727V344H1641V258Z"/>
</mask>
<path d="M85.5 0V86H86.5V0H85.5ZM86 85.5H0V86.5H86V85.5ZM172.5 0V86H173.5V0H172.5ZM173 85.5H86V86.5H173V85.5ZM258.5 0V86H259.5V0H258.5ZM259 85.5H173V86.5H259V85.5ZM344.5 0V86H345.5V0H344.5ZM345 85.5H259V86.5H345V85.5ZM431.5 0V86H432.5V0H431.5ZM432 85.5H345V86.5H432V85.5ZM517.5 0V86H518.5V0H517.5ZM518 85.5H432V86.5H518V85.5ZM603.5 0V86H604.5V0H603.5ZM604 85.5H518V86.5H604V85.5ZM690.5 0V86H691.5V0H690.5ZM691 85.5H604V86.5H691V85.5ZM776.5 0V86H777.5V0H776.5ZM777 85.5H691V86.5H777V85.5ZM863 85.5H777V86.5H863V85.5ZM949.5 0V86H950.5V0H949.5ZM950 85.5H864V86.5H950V85.5ZM1035.5 0V86H1036.5V0H1035.5ZM1036 85.5H950V86.5H1036V85.5ZM1122.5 0V86H1123.5V0H1122.5ZM1123 85.5H1036V86.5H1123V85.5ZM1208.5 0V86H1209.5V0H1208.5ZM1209 85.5H1123V86.5H1209V85.5ZM1294.5 0V86H1295.5V0H1294.5ZM1295 85.5H1209V86.5H1295V85.5ZM1381.5 0V86H1382.5V0H1381.5ZM1382 85.5H1295V86.5H1382V85.5ZM1467.5 0V86H1468.5V0H1467.5ZM1468 85.5H1382V86.5H1468V85.5ZM1553.5 0V86H1554.5V0H1553.5ZM1554 85.5H1468V86.5H1554V85.5ZM1640.5 0V86H1641.5V0H1640.5ZM1641 85.5H1554V86.5H1641V85.5ZM1727 85.5H1641V86.5H1727V85.5ZM85.5 86V172H86.5V86H85.5ZM86 171.5H0V172.5H86V171.5ZM172.5 86V172H173.5V86H172.5ZM173 171.5H86V172.5H173V171.5ZM258.5 86V172H259.5V86H258.5ZM259 171.5H173V172.5H259V171.5ZM344.5 86V172H345.5V86H344.5ZM345 171.5H259V172.5H345V171.5ZM431.5 86V172H432.5V86H431.5ZM432 171.5H345V172.5H432V171.5ZM517.5 86V172H518.5V86H517.5ZM518 171.5H432V172.5H518V171.5ZM603.5 86V172H604.5V86H603.5ZM604 171.5H518V172.5H604V171.5ZM690.5 86V172H691.5V86H690.5ZM691 171.5H604V172.5H691V171.5ZM776.5 86V172H777.5V86H776.5ZM777 171.5H691V172.5H777V171.5ZM863 171.5H777V172.5H863V171.5ZM949.5 86V172H950.5V86H949.5ZM950 171.5H864V172.5H950V171.5ZM1035.5 86V172H1036.5V86H1035.5ZM1036 171.5H950V172.5H1036V171.5ZM1122.5 86V172H1123.5V86H1122.5ZM1123 171.5H1036V172.5H1123V171.5ZM1208.5 86V172H1209.5V86H1208.5ZM1209 171.5H1123V172.5H1209V171.5ZM1294.5 86V172H1295.5V86H1294.5ZM1295 171.5H1209V172.5H1295V171.5ZM1381.5 86V172H1382.5V86H1381.5ZM1382 171.5H1295V172.5H1382V171.5ZM1467.5 86V172H1468.5V86H1467.5ZM1468 171.5H1382V172.5H1468V171.5ZM1553.5 86V172H1554.5V86H1553.5ZM1554 171.5H1468V172.5H1554V171.5ZM1640.5 86V172H1641.5V86H1640.5ZM1641 171.5H1554V172.5H1641V171.5ZM1727 171.5H1641V172.5H1727V171.5ZM85.5 172V258H86.5V172H85.5ZM86 257.5H0V258.5H86V257.5ZM172.5 172V258H173.5V172H172.5ZM173 257.5H86V258.5H173V257.5ZM258.5 172V258H259.5V172H258.5ZM259 257.5H173V258.5H259V257.5ZM344.5 172V258H345.5V172H344.5ZM345 257.5H259V258.5H345V257.5ZM431.5 172V258H432.5V172H431.5ZM432 257.5H345V258.5H432V257.5ZM517.5 172V258H518.5V172H517.5ZM518 257.5H432V258.5H518V257.5ZM603.5 172V258H604.5V172H603.5ZM604 257.5H518V258.5H604V257.5ZM690.5 172V258H691.5V172H690.5ZM691 257.5H604V258.5H691V257.5ZM776.5 172V258H777.5V172H776.5ZM777 257.5H691V258.5H777V257.5ZM863 257.5H777V258.5H863V257.5ZM949.5 172V258H950.5V172H949.5ZM950 257.5H864V258.5H950V257.5ZM1035.5 172V258H1036.5V172H1035.5ZM1036 257.5H950V258.5H1036V257.5ZM1122.5 172V258H1123.5V172H1122.5ZM1123 257.5H1036V258.5H1123V257.5ZM1208.5 172V258H1209.5V172H1208.5ZM1209 257.5H1123V258.5H1209V257.5ZM1294.5 172V258H1295.5V172H1294.5ZM1295 257.5H1209V258.5H1295V257.5ZM1381.5 172V258H1382.5V172H1381.5ZM1382 257.5H1295V258.5H1382V257.5ZM1467.5 172V258H1468.5V172H1467.5ZM1468 257.5H1382V258.5H1468V257.5ZM1553.5 172V258H1554.5V172H1553.5ZM1554 257.5H1468V258.5H1554V257.5ZM1640.5 172V258H1641.5V172H1640.5ZM1641 257.5H1554V258.5H1641V257.5ZM1727 257.5H1641V258.5H1727V257.5ZM85.5 258V344H86.5V258H85.5ZM172.5 258V344H173.5V258H172.5ZM258.5 258V344H259.5V258H258.5ZM344.5 258V344H345.5V258H344.5ZM431.5 258V344H432.5V258H431.5ZM517.5 258V344H518.5V258H517.5ZM603.5 258V344H604.5V258H603.5ZM690.5 258V344H691.5V258H690.5ZM776.5 258V344H777.5V258H776.5ZM949.5 258V344H950.5V258H949.5ZM1035.5 258V344H1036.5V258H1035.5ZM1122.5 258V344H1123.5V258H1122.5ZM1208.5 258V344H1209.5V258H1208.5ZM1294.5 258V344H1295.5V258H1294.5ZM1381.5 258V344H1382.5V258H1381.5ZM1467.5 258V344H1468.5V258H1467.5ZM1553.5 258V344H1554.5V258H1553.5ZM1640.5 258V344H1641.5V258H1640.5ZM0 0V-1H-1V0H0ZM863 0H864V-1H863V0ZM864 0V-1H863V0H864ZM1727 0H1728V-1H1727V0ZM0 344H-1V345H0V344ZM863 344V345H864V344H863ZM864 344H863V345H864V344ZM1727 344V345H1728V344H1727ZM0 1H86V-1H0V1ZM1 86V0H-1V86H1ZM86 1H173V-1H86V1ZM173 1H259V-1H173V1ZM259 1H345V-1H259V1ZM345 1H432V-1H345V1ZM432 1H518V-1H432V1ZM518 1H604V-1H518V1ZM604 1H691V-1H604V1ZM691 1H777V-1H691V1ZM777 1H863V-1H777V1ZM862 0V86H864V0H862ZM864 1H950V-1H864V1ZM865 86V0H863V86H865ZM950 1H1036V-1H950V1ZM1036 1H1123V-1H1036V1ZM1123 1H1209V-1H1123V1ZM1209 1H1295V-1H1209V1ZM1295 1H1382V-1H1295V1ZM1382 1H1468V-1H1382V1ZM1468 1H1554V-1H1468V1ZM1554 1H1641V-1H1554V1ZM1641 1H1727V-1H1641V1ZM1726 0V86H1728V0H1726ZM1 172V86H-1V172H1ZM862 86V172H864V86H862ZM865 172V86H863V172H865ZM1726 86V172H1728V86H1726ZM1 258V172H-1V258H1ZM862 172V258H864V172H862ZM865 258V172H863V258H865ZM1726 172V258H1728V172H1726ZM86 343H0V345H86V343ZM1 344V258H-1V344H1ZM173 343H86V345H173V343ZM259 343H173V345H259V343ZM345 343H259V345H345V343ZM432 343H345V345H432V343ZM518 343H432V345H518V343ZM604 343H518V345H604V343ZM691 343H604V345H691V343ZM777 343H691V345H777V343ZM862 258V344H864V258H862ZM863 343H777V345H863V343ZM950 343H864V345H950V343ZM865 344V258H863V344H865ZM1036 343H950V345H1036V343ZM1123 343H1036V345H1123V343ZM1209 343H1123V345H1209V343ZM1295 343H1209V345H1295V343ZM1382 343H1295V345H1382V343ZM1468 343H1382V345H1468V343ZM1554 343H1468V345H1554V343ZM1641 343H1554V345H1641V343ZM1726 258V344H1728V258H1726ZM1727 343H1641V345H1727V343Z" fill="url(#paint0_linear_225_100588)" fill-opacity="0.21" mask="url(#path-1-inside-1_225_100588)"/>
<defs>
<linearGradient id="paint0_linear_225_100588" x1="864" y1="20.5" x2="864" y2="330" gradientUnits="userSpaceOnUse">
<stop stop-color="white"/>
<stop offset="1" stop-color="white" stop-opacity="0.26"/>
</linearGradient>
</defs>
</svg>
