<svg width="238" height="153" viewBox="0 0 238 153" fill="none" xmlns="http://www.w3.org/2000/svg">
<g clip-path="url(#clip0_378_18517)">
<rect width="340" height="153" fill="#121212"/>
<g style="mix-blend-mode:color-dodge" opacity="0.34">
<rect width="238" height="153" fill="url(#paint0_linear_378_18517)"/>
</g>
<mask id="mask0_378_18517" style="mask-type:luminance" maskUnits="userSpaceOnUse" x="20" y="47" width="180" height="59">
<path d="M20 47L20.6168 106L199.495 105.384L198.878 47H20Z" fill="white"/>
</mask>
<g mask="url(#mask0_378_18517)">
<path d="M37.2715 66.7666H67.6959V82.1767H37.2715V66.7666Z" fill="#E9041E"/>
</g>
<mask id="mask1_378_18517" style="mask-type:luminance" maskUnits="userSpaceOnUse" x="20" y="47" width="198" height="59">
<path d="M20 47L20.6168 106L218 105.384L217.383 47H20Z" fill="white"/>
</mask>
<g mask="url(#mask1_378_18517)">
<path d="M87.5751 70.0991C85.9497 69.4328 84.2409 68.9746 82.6989 68.9746C80.4483 68.9746 79.3226 69.4744 79.3226 70.3074C79.3226 72.8063 89.3673 70.8072 89.3673 76.0966C89.3673 78.304 87.325 79.9699 83.1573 79.9699C80.6988 79.9699 78.7812 79.4701 76.5723 78.2624L77.4892 76.3048C79.4064 77.3877 81.1981 77.8459 83.1573 77.8459C85.6163 77.8459 86.9083 77.1378 86.9083 76.0966C86.9083 73.3894 76.8641 75.3885 76.8641 70.4323C76.8641 68.3082 78.9058 66.8089 82.6155 66.8089C84.8244 66.8089 86.6999 67.3086 88.4503 68.1833L87.5751 70.0991ZM98.7446 80.0533C94.7432 80.0533 91.409 77.3877 91.409 73.3894C91.409 69.4328 94.7432 66.7256 98.7446 66.7256C102.787 66.7256 106.038 69.4328 106.038 73.3894C106.08 77.3877 102.787 80.0533 98.7446 80.0533ZM98.7446 68.8913C95.8272 68.8913 93.8267 70.8488 93.8267 73.3894C93.8267 75.9717 95.7438 77.9291 98.7446 77.9291C101.745 77.9291 103.621 75.9717 103.621 73.3894C103.662 70.8488 101.745 68.8913 98.7446 68.8913ZM115.624 80.0533C111.414 80.0533 108.247 77.3877 108.247 73.3894C108.247 69.4744 111.456 66.7256 115.624 66.7256C118.124 66.7256 119.875 67.4336 121.5 68.5998L120.25 70.4323C119.083 69.5577 117.624 68.8913 115.708 68.8913C112.623 68.8913 110.706 70.8488 110.706 73.3478C110.706 75.93 112.623 77.8459 115.708 77.8459C117.625 77.8459 119.167 77.2211 120.334 76.3465L121.584 78.179C120 79.3869 118.124 80.0533 115.624 80.0533ZM123.959 67.1837H126.46V79.6784H123.959V67.1837ZM129.794 79.6784V67.1837H141.464V69.2662H132.295V72.1816H139.38V74.264H132.295V77.596H141.88V79.6784H129.794ZM150.633 69.2662V79.6784H148.132V69.2662H143.131V67.1837H155.634V69.2662H150.633ZM157.718 79.6784V67.1837H168.971V69.2662H159.802V72.1816H166.887V74.264H159.802V77.596H169.387V79.6784H157.718ZM83.7408 94.5888C85.0328 94.5888 86.4498 94.2972 87.2834 93.839V90.0907H89.784V95.0469C88.1169 96.1298 85.908 96.7545 83.7408 96.7545C79.531 96.7545 76.3223 94.089 76.3223 90.0907C76.3223 86.1756 79.531 83.4685 83.6987 83.4685C86.1164 83.4685 87.9498 84.1353 89.5335 85.3427L88.2832 87.1752C87.1162 86.3006 85.6576 85.6759 83.7408 85.6759C80.6567 85.5926 78.7395 87.5917 78.7395 90.0907C78.7395 92.7562 80.6567 94.5888 83.7408 94.5888ZM92.7014 96.338V83.8433H104.371V85.9258H95.202V88.8412H102.287V90.9236H95.202V94.2556H104.788V96.338H92.7014ZM108.955 96.338H106.872V83.8433H109.247L117.458 93.3393C117.333 90.9653 117.249 89.0495 117.249 87.1752V83.8433H119.75V96.338H117.249L109.081 86.9253L108.955 86.967C109.039 88.8412 108.955 92.1315 108.955 93.1727V96.338ZM123.126 96.338V83.8433H134.379V85.9258H125.21V88.8412H132.295V90.9236H125.21V94.2556H134.795V96.338H123.126ZM143.381 91.7566H139.797V96.338H137.296V83.8433H145.381C148.049 83.8433 149.716 85.5092 149.716 87.8833C149.716 90.1319 148.09 91.4234 146.09 91.715L149.841 96.3793H146.923L143.381 91.7566ZM145.131 89.6742C146.59 89.6742 147.424 88.9245 147.424 87.8416C147.424 86.6342 146.715 85.9258 145.381 85.9258H139.797V89.6742H145.131ZM154.634 93.4226L153.175 96.338H150.633L156.759 83.8433H159.218L165.344 96.338H162.844L161.385 93.4226H154.634ZM155.592 91.3401H160.427L158.01 86.2589L155.592 91.3401ZM167.304 96.338V83.8433H169.387V94.2556H177.723V96.338H167.304ZM179.39 96.338V83.8433H191.06V85.9258H181.891V88.8412H188.976V90.9236H181.891V94.2556H191.476V96.338H179.39Z" fill="white"/>
<path d="M37.2715 81.7607H67.6959V96.7543H37.2715V81.7607Z" fill="black"/>
<path d="M42.6895 80.9268H62.2777V82.5927H42.6895V80.9268Z" fill="white"/>
</g>
<path d="M38 66.5H37.5V67V97V97.5H38H67H67.5V97V67V66.5H67H38Z" stroke="white"/>
</g>
<defs>
<linearGradient id="paint0_linear_378_18517" x1="0" y1="76.5" x2="238" y2="76.5" gradientUnits="userSpaceOnUse">
<stop stop-color="#504D61"/>
<stop offset="0.496118" stop-color="#CBCBCB"/>
<stop offset="1" stop-color="#504D61"/>
</linearGradient>
<clipPath id="clip0_378_18517">
<rect width="238" height="153" rx="16" fill="white"/>
</clipPath>
</defs>
</svg>
