<svg width="165" height="31" viewBox="0 0 165 31" fill="none" xmlns="http://www.w3.org/2000/svg">
<g clip-path="url(#clip0_315_6779)">
<path d="M55.4196 6.49855H64.275C66.4094 6.49855 68.2151 6.82884 69.6921 7.48942C71.0519 8.05642 72.2066 9.0188 73.0039 10.2497C73.7503 11.4657 74.1328 12.867 74.1068 14.2904C74.1232 15.7203 73.7258 17.1248 72.9618 18.3375C72.1095 19.6185 70.8907 20.6178 69.4618 21.2071C67.8961 21.9149 65.9553 22.2677 63.6392 22.2656H55.4196V6.49855ZM63.5484 18.2538C64.9865 18.2538 66.0915 17.8978 66.8635 17.1858C67.255 16.8093 67.5608 16.3542 67.7605 15.8509C67.9602 15.3477 68.0492 14.808 68.0215 14.2679C68.0456 13.7665 67.9666 13.2655 67.7893 12.7954C67.6119 12.3253 67.34 11.8959 66.99 11.5333C66.298 10.8513 65.2568 10.5092 63.8663 10.5071H61.0961V18.2538H63.5484Z" fill="white"/>
<path d="M87.3672 22.2398C86.199 21.9495 85.0814 21.4864 84.0521 20.8661V17.1279C84.9507 17.7761 85.9625 18.2538 87.0364 18.5369C88.2111 18.8924 89.4315 19.0777 90.6596 19.0871C91.0835 19.1095 91.5071 19.0369 91.8988 18.8747C92.1777 18.7332 92.3172 18.553 92.3172 18.3664C92.3202 18.2622 92.3016 18.1584 92.2625 18.0616C92.2235 17.9648 92.1648 17.8769 92.0901 17.8034C91.831 17.6058 91.527 17.4743 91.2046 17.4206L88.4798 16.8126C86.9185 16.4523 85.8102 15.9536 85.155 15.3166C84.8261 14.9876 84.5697 14.5943 84.4022 14.1618C84.2347 13.7292 84.1596 13.2669 84.1819 12.8041C84.1709 11.9653 84.479 11.1532 85.0447 10.5296C85.7154 9.82591 86.5612 9.30994 87.497 9.03362C88.7012 8.65824 89.9588 8.47897 91.2208 8.5028C92.3989 8.49183 93.5738 8.62802 94.7176 8.90816C95.6415 9.12525 96.5287 9.47419 97.3515 9.94406V13.4829C96.5799 13.0389 95.7504 12.7022 94.8863 12.4824C93.95 12.2334 92.9848 12.1079 92.0155 12.1092C90.5926 12.1092 89.8811 12.3494 89.8811 12.8298C89.8788 12.9368 89.9083 13.0421 89.966 13.1325C90.0237 13.2229 90.107 13.2944 90.2055 13.3381C90.5943 13.502 91.0016 13.6187 91.4187 13.6856L93.6893 14.0909C95.1641 14.3483 96.2638 14.7987 96.9882 15.4421C97.7127 16.0855 98.0759 17.027 98.0781 18.2667C98.0896 18.9186 97.9289 19.5621 97.612 20.1332C97.295 20.7044 96.8328 21.1833 96.2713 21.5224C95.0755 22.3181 93.3682 22.7149 91.1495 22.7127C89.8736 22.7147 88.6027 22.5558 87.3672 22.2398Z" fill="white"/>
<path d="M103.443 21.7669C102.229 21.2137 101.206 20.3187 100.501 19.1932C99.8435 18.0895 99.5067 16.8269 99.5281 15.545C99.5085 14.264 99.8634 13.0047 100.55 11.9194C101.282 10.8116 102.323 9.93951 103.547 9.41002C105.035 8.76693 106.647 8.45507 108.27 8.49636C110.541 8.49636 112.425 8.96928 113.924 9.9151V14.0426C113.354 13.6625 112.731 13.3667 112.075 13.1644C111.341 12.9345 110.574 12.8205 109.804 12.8266C108.396 12.8266 107.295 13.0818 106.499 13.5923C106.141 13.7903 105.843 14.0787 105.634 14.4283C105.425 14.7778 105.313 15.176 105.31 15.5823C105.307 15.9886 105.412 16.3885 105.615 16.7414C105.818 17.0942 106.112 17.3874 106.466 17.5911C107.238 18.108 108.359 18.3664 109.827 18.3664C110.585 18.3682 111.339 18.2598 112.065 18.0447C112.728 17.8563 113.364 17.5873 113.96 17.2437V21.2329C112.204 22.2478 110.201 22.7621 108.169 22.7192C106.541 22.7632 104.925 22.4375 103.443 21.7669Z" fill="white"/>
<path d="M119.578 21.7669C118.35 21.211 117.309 20.3178 116.577 19.1932C115.888 18.0921 115.53 16.8186 115.546 15.5225C115.524 14.2418 115.883 12.983 116.577 11.9033C117.313 10.8073 118.35 9.94316 119.565 9.41324C122.55 8.21213 125.889 8.21213 128.874 9.41324C130.085 9.93911 131.117 10.799 131.849 11.8904C132.539 12.9742 132.894 14.2345 132.871 15.5161C132.887 16.8108 132.532 18.0836 131.849 19.1868C131.125 20.3122 130.089 21.206 128.865 21.7605C127.397 22.3845 125.818 22.7063 124.221 22.7063C122.625 22.7063 121.045 22.3845 119.578 21.7605V21.7669ZM126.477 17.7713C126.758 17.484 126.976 17.143 127.119 16.769C127.262 16.395 127.326 15.996 127.308 15.5965C127.327 15.2008 127.264 14.8053 127.121 14.4353C126.978 14.0653 126.758 13.7289 126.477 13.4475C126.172 13.17 125.814 12.9561 125.424 12.8185C125.034 12.6809 124.62 12.6224 124.207 12.6464C123.794 12.6249 123.38 12.6846 122.991 12.8221C122.601 12.9595 122.242 13.1721 121.936 13.4475C121.656 13.7295 121.438 14.0661 121.295 14.436C121.153 14.8059 121.089 15.2011 121.109 15.5965C121.091 15.9957 121.155 16.3944 121.297 16.7683C121.439 17.1422 121.656 17.4834 121.936 17.7713C122.239 18.0522 122.597 18.2697 122.987 18.4106C123.377 18.5516 123.792 18.6131 124.207 18.5916C124.621 18.6156 125.037 18.5552 125.427 18.4141C125.818 18.273 126.175 18.0543 126.477 17.7713Z" fill="white"/>
<path d="M146.517 9.32959V14.2003C145.839 13.7991 145.058 13.6034 144.269 13.6373C143.059 13.6373 142.125 14.004 141.476 14.7311C140.828 15.4582 140.503 16.5874 140.503 18.1187V22.2623H134.94V9.08831H140.39V13.2705C140.692 11.7392 141.181 10.61 141.856 9.88293C142.183 9.52541 142.584 9.24248 143.032 9.05364C143.48 8.86481 143.964 8.77456 144.451 8.78912C145.178 8.76945 145.895 8.95704 146.517 9.32959Z" fill="white"/>
<path d="M165 6.04816V22.2624H159.437V19.3026C159.017 20.3563 158.264 21.2461 157.29 21.8377C156.214 22.4453 154.991 22.7481 153.754 22.7127C152.59 22.7396 151.444 22.4227 150.461 21.8023C149.51 21.1895 148.753 20.3231 148.275 19.3026C147.754 18.1762 147.495 16.9482 147.516 15.7091C147.48 14.4244 147.755 13.1499 148.321 11.9934C148.84 10.934 149.651 10.0419 150.659 9.41968C151.696 8.79676 152.889 8.47672 154.101 8.49637C156.748 8.49637 158.527 9.63737 159.437 11.9194V6.04816H165ZM158.62 17.6941C158.903 17.4173 159.125 17.085 159.272 16.7183C159.419 16.3516 159.487 15.9586 159.473 15.5643C159.485 15.1819 159.415 14.8012 159.268 14.4474C159.121 14.0937 158.9 13.7748 158.62 13.5118C157.983 12.9979 157.187 12.7173 156.367 12.7173C155.546 12.7173 154.75 12.9979 154.114 13.5118C153.834 13.7808 153.615 14.1052 153.47 14.4638C153.326 14.8224 153.259 15.2073 153.274 15.5933C153.26 15.9829 153.328 16.3712 153.474 16.733C153.621 17.0949 153.842 17.4223 154.124 17.6941C154.422 17.9688 154.772 18.1818 155.154 18.3204C155.536 18.4591 155.942 18.5207 156.349 18.5016C156.763 18.5242 157.177 18.4644 157.567 18.3258C157.957 18.1871 158.315 17.9723 158.62 17.6941Z" fill="white"/>
<path d="M34.9352 2.5962C32.2256 1.36588 29.3651 0.493046 26.4268 0C26.0247 0.712872 25.6609 1.44632 25.3369 2.19728C22.2071 1.72952 19.0242 1.72952 15.8944 2.19728C15.5702 1.4464 15.2064 0.712958 14.8045 0C11.8643 0.49721 9.00192 1.37211 6.28961 2.60264C0.904976 10.5038 -0.554713 18.2088 0.175132 25.8044C3.32851 28.1151 6.85803 29.8724 10.6103 31C11.4552 29.873 12.2028 28.6774 12.8452 27.4258C11.625 26.9738 10.4473 26.4162 9.32576 25.7593C9.62094 25.547 9.90963 25.3282 10.1886 25.1159C13.4521 26.6381 17.0141 27.4273 20.6205 27.4273C24.2269 27.4273 27.7889 26.6381 31.0524 25.1159C31.3346 25.3443 31.6233 25.5631 31.9153 25.7593C30.7915 26.4172 29.6117 26.976 28.3893 27.429C29.0309 28.68 29.7786 29.8746 30.6242 31C34.3797 29.877 37.9119 28.1204 41.0659 25.8076C41.9222 16.9992 39.6029 9.36499 34.9352 2.5962ZM13.7697 21.1331C11.7359 21.1331 10.0556 19.3026 10.0556 17.0506C10.0556 14.7987 11.6775 12.9521 13.7632 12.9521C15.8489 12.9521 17.5162 14.7987 17.4806 17.0506C17.4449 19.3026 15.8425 21.1331 13.7697 21.1331ZM27.4713 21.1331C25.4342 21.1331 23.7605 19.3026 23.7605 17.0506C23.7605 14.7987 25.3823 12.9521 27.4713 12.9521C29.5603 12.9521 31.2146 14.7987 31.1789 17.0506C31.1432 19.3026 29.5441 21.1331 27.4713 21.1331Z" fill="white"/>
<path d="M78.7972 10.491C80.3289 10.491 81.5706 9.38478 81.5706 8.02023C81.5706 6.65569 80.3289 5.5495 78.7972 5.5495C77.2655 5.5495 76.0238 6.65569 76.0238 8.02023C76.0238 9.38478 77.2655 10.491 78.7972 10.491Z" fill="white"/>
<path d="M76.0206 12.1928C76.8992 12.559 77.8426 12.7477 78.7957 12.7477C79.7487 12.7477 80.6921 12.559 81.5707 12.1928V22.3331H76.0206V12.1928Z" fill="white"/>
</g>
<defs>
<clipPath id="clip0_315_6779">
<rect width="165" height="31" fill="white"/>
</clipPath>
</defs>
</svg>
