<svg width="128" height="43" viewBox="0 0 128 43" fill="none" xmlns="http://www.w3.org/2000/svg">
<path d="M54.4706 22.0515C54.4706 28.0201 49.7694 32.4183 44 32.4183C38.2306 32.4183 33.5294 28.0201 33.5294 22.0515C33.5294 16.0409 38.2306 11.6848 44 11.6848C49.7694 11.6848 54.4706 16.0409 54.4706 22.0515ZM49.8871 22.0515C49.8871 18.3217 47.1624 15.7698 44 15.7698C40.8377 15.7698 38.1129 18.3217 38.1129 22.0515C38.1129 25.7439 40.8377 28.3333 44 28.3333C47.1624 28.3333 49.8871 25.7392 49.8871 22.0515Z" fill="white"/>
<path d="M77.0589 22.0515C77.0589 28.0201 72.3577 32.4183 66.5883 32.4183C60.8189 32.4183 56.1177 28.0201 56.1177 22.0515C56.1177 16.0455 60.8189 11.6848 66.5883 11.6848C72.3577 11.6848 77.0589 16.0409 77.0589 22.0515ZM72.4753 22.0515C72.4753 18.3217 69.7506 15.7698 66.5883 15.7698C63.4259 15.7698 60.7012 18.3217 60.7012 22.0515C60.7012 25.7439 63.4259 28.3333 66.5883 28.3333C69.7506 28.3333 72.4753 25.7392 72.4753 22.0515Z" fill="white"/>
<path d="M98.7059 12.3111V30.9226C98.7059 38.5785 94.1601 41.7053 88.7859 41.7053C83.7271 41.7053 80.6824 38.3448 79.5342 35.5965L83.5248 33.9466C84.2354 35.6339 85.9765 37.625 88.7812 37.625C92.2212 37.625 94.353 35.5171 94.353 31.5489V30.0579H94.193C93.1671 31.3152 91.1907 32.4136 88.6965 32.4136C83.4777 32.4136 78.6965 27.8986 78.6965 22.0889C78.6965 16.2372 83.4777 11.6848 88.6965 11.6848C91.1859 11.6848 93.1624 12.7832 94.193 14.003H94.353V12.3158H98.7059V12.3111ZM94.6777 22.0889C94.6777 18.4386 92.226 15.7698 89.106 15.7698C85.9436 15.7698 83.2942 18.4386 83.2942 22.0889C83.2942 25.7018 85.9436 28.3333 89.106 28.3333C92.226 28.3333 94.6777 25.7018 94.6777 22.0889Z" fill="white"/>
<path d="M105.882 1.40218V31.7826H101.412V1.40218H105.882Z" fill="white"/>
<path d="M123.303 25.4635L126.861 27.8191C125.713 29.5064 122.946 32.4136 118.165 32.4136C112.235 32.4136 107.807 27.8612 107.807 22.0469C107.807 15.882 112.273 11.6801 117.652 11.6801C123.068 11.6801 125.718 15.9614 126.583 18.275L127.059 19.4528L113.106 25.1924C114.174 27.2723 115.835 28.3333 118.165 28.3333C120.499 28.3333 122.118 27.1928 123.303 25.4635ZM112.353 21.7337L121.68 17.8871C121.167 16.5924 119.623 15.6903 117.807 15.6903C115.478 15.6903 112.235 17.7328 112.353 21.7337Z" fill="white"/>
<path d="M16.6071 19.3547V14.9565H31.5294C31.6753 15.7231 31.7506 16.6298 31.7506 17.6113C31.7506 20.9111 30.8424 24.9914 27.9153 27.8986C25.0683 30.8432 21.4306 32.4136 16.6118 32.4136C7.68002 32.4136 0.169434 25.1877 0.169434 16.3166C0.169434 7.44555 7.68002 0.219681 16.6118 0.219681C21.553 0.219681 25.073 2.14533 27.7177 4.65522L24.593 7.7587C22.6965 5.99196 20.1271 4.61783 16.6071 4.61783C10.0847 4.61783 4.98355 9.83859 4.98355 16.3166C4.98355 22.7947 10.0847 28.0154 16.6071 28.0154C20.8377 28.0154 23.2471 26.3282 24.7906 24.7951C26.0424 23.5519 26.8659 21.7758 27.1906 19.35L16.6071 19.3547Z" fill="white"/>
</svg>
