<svg width="106" height="35" viewBox="0 0 106 35" fill="none" xmlns="http://www.w3.org/2000/svg">
<g clip-path="url(#clip0_417_12276)">
<path d="M26.4437 13.7764C25.897 14.3331 25.1988 14.7116 24.4387 14.8631C24.9444 16.2461 25.0481 17.7473 24.7375 19.1883C24.427 20.6293 23.7152 21.9496 22.6867 22.9921C21.6583 24.0347 20.3564 24.7557 18.9359 25.0695C17.5154 25.3833 16.036 25.2768 14.6735 24.7624C14.5383 25.467 14.2169 26.1211 13.7436 26.6547C13.2703 27.1882 12.663 27.5812 11.9865 27.7915C11.3101 28.0019 10.59 28.0217 9.90338 27.8488C9.21672 27.6759 8.5893 27.3169 8.08823 26.8101C7.58716 26.3034 7.2313 25.6679 7.05872 24.9718C6.88614 24.2756 6.90333 23.5449 7.10845 22.8579C7.31357 22.1709 7.69891 21.5534 8.22324 21.0715C8.74757 20.5896 9.39117 20.2613 10.0852 20.1219C9.56714 18.7365 9.45436 17.2289 9.76038 15.7801C10.0664 14.3313 10.7782 13.0029 11.8103 11.9546C12.8423 10.9064 14.1507 10.1827 15.5783 9.8707C17.0059 9.55868 18.4919 9.67152 19.8578 10.1957C19.9781 9.59008 20.2364 9.02144 20.612 8.53523C20.9876 8.04903 21.4701 7.65875 22.021 7.39561C22.5719 7.13247 23.1758 7.00377 23.7844 7.0198C24.3931 7.03583 24.9896 7.19614 25.5262 7.48792C26.0629 7.7797 26.5248 8.19485 26.8751 8.70017C27.2253 9.20549 27.4542 9.78695 27.5434 10.3981C27.6325 11.0092 27.5795 11.633 27.3886 12.2196C27.1976 12.8062 26.874 13.3393 26.4437 13.7764ZM17.2553 0.00449064C13.8434 0.00271406 10.5076 1.02772 7.66988 2.94985C4.83217 4.87197 2.62006 7.60486 1.31336 10.8028C0.00665515 14.0008 -0.335921 17.5201 0.328962 20.9156C0.993845 24.3111 2.63631 27.4303 5.0486 29.8785C7.46089 32.3268 10.5346 33.9941 13.881 34.6696C17.2273 35.3451 20.6959 34.9984 23.8481 33.6734C27.0002 32.3484 29.6942 30.1046 31.5893 27.2258C33.4844 24.347 34.4955 20.9626 34.4946 17.5007C34.4946 12.8595 32.6776 8.40837 29.4433 5.12638C26.2089 1.8444 21.8222 0.000396992 17.2479 0L17.2553 0.00449064ZM19.2928 19.5456C18.8935 19.9506 18.3848 20.2263 17.831 20.338C17.2773 20.4497 16.7034 20.3923 16.1818 20.173C15.6602 19.9537 15.2144 19.5825 14.9008 19.1062C14.5871 18.6298 14.4197 18.0699 14.4197 17.497C14.4197 16.9242 14.5871 16.3642 14.9008 15.8879C15.2144 15.4115 15.6602 15.0403 16.1818 14.821C16.7034 14.6017 17.2773 14.5443 17.831 14.656C18.3848 14.7677 18.8935 15.0435 19.2928 15.4484C19.826 15.9925 20.1247 16.729 20.1234 17.4963C20.122 18.2636 19.8206 18.999 19.2854 19.5411L19.2928 19.5456ZM21.8392 9.10889C21.5495 9.40365 21.3331 9.76416 21.2079 10.1606C21.0827 10.557 21.0523 10.978 21.1192 11.3887C21.1694 11.6642 21.1343 11.9486 21.0189 12.2031C20.9457 12.3646 20.8417 12.5099 20.713 12.6305C20.5842 12.7511 20.4332 12.8447 20.2686 12.9057C20.104 12.9668 19.9291 12.9943 19.7541 12.9865C19.579 12.9786 19.4072 12.9357 19.2485 12.8602C18.3315 12.4303 17.3066 12.2961 16.3121 12.4758C15.3176 12.6555 14.4013 13.1405 13.687 13.8652C12.9727 14.59 12.4948 15.5196 12.3176 16.5287C12.1405 17.5378 12.2728 18.5777 12.6965 19.5081C12.7901 19.7133 12.8313 19.9391 12.8163 20.1647C12.8013 20.3903 12.7306 20.6084 12.6106 20.799C12.4907 20.9896 12.3255 21.1465 12.1301 21.2552C11.9347 21.3639 11.7155 21.421 11.4926 21.4212C11.4044 21.4201 11.3165 21.4106 11.23 21.3928C10.8274 21.3292 10.4157 21.3628 10.0284 21.4911C9.64101 21.6193 9.28894 21.8385 9.0008 22.1308C8.68819 22.4478 8.46118 22.8411 8.34159 23.2728C8.22199 23.7046 8.21383 24.1603 8.31789 24.5961C8.42194 25.032 8.63472 25.4334 8.93577 25.7617C9.23683 26.0901 9.61604 26.3343 10.037 26.4711C10.4579 26.6078 10.9065 26.6324 11.3395 26.5425C11.7725 26.4526 12.1755 26.2513 12.5097 25.9578C12.8439 25.6643 13.098 25.2885 13.2478 24.8666C13.3976 24.4446 13.4379 23.9907 13.3648 23.5484C13.3583 23.5042 13.3583 23.4593 13.3648 23.4152C13.3444 23.1244 13.4175 22.8347 13.5731 22.5896C13.7287 22.3445 13.9585 22.1572 14.2279 22.0559C14.3923 21.9939 14.5671 21.9656 14.7424 21.9725C14.9176 21.9795 15.0897 22.0216 15.2489 22.0964C16.1657 22.527 17.1907 22.6617 18.1854 22.4823C19.1801 22.3029 20.0966 21.8181 20.8111 21.0934C21.5255 20.3686 22.0035 19.4388 22.1805 18.4296C22.3575 17.4203 22.225 16.3803 21.8008 15.4499C21.701 15.2313 21.6607 14.9895 21.6843 14.7498C21.7078 14.51 21.7943 14.2811 21.9348 14.0868C22.0752 13.8925 22.2644 13.7399 22.4827 13.6451C22.701 13.5502 22.9403 13.5164 23.1758 13.5473C23.2135 13.5421 23.2517 13.5421 23.2894 13.5473C23.7244 13.6106 24.168 13.56 24.5782 13.4004C24.9884 13.2407 25.3516 12.9773 25.6333 12.6352C25.915 12.2931 26.1058 11.8836 26.1876 11.4456C26.2694 11.0076 26.2395 10.5556 26.1007 10.1327C25.962 9.70968 25.7189 9.32973 25.3947 9.02887C25.0705 8.728 24.6759 8.51623 24.2483 8.41365C23.8207 8.31108 23.3744 8.32111 22.9517 8.44279C22.5291 8.56447 22.1441 8.79376 21.8333 9.10889H21.8392ZM67.8549 22.8209C67.9508 22.8119 68.0246 22.8089 68.0718 22.8089V25.3747C67.6355 25.4742 67.191 25.5318 66.744 25.5468C65.6621 25.5468 64.8212 25.2694 64.2212 24.7145C63.6212 24.1596 63.3198 23.2944 63.3168 22.1188V7.69428H66.3516V21.6039C66.3516 22.012 66.4317 22.3179 66.5921 22.5215C66.7529 22.7266 67.076 22.8209 67.5584 22.8209C67.6543 22.8284 67.7531 22.8239 67.8476 22.8164L67.8549 22.8209ZM69.5235 25.4001H72.5893V12.6656H69.5235V25.4001ZM82.6349 12.6656H85.6519V25.4001H83.1439L82.9255 23.734C82.6145 24.3603 82.1162 24.8707 81.5018 25.192C80.8326 25.5487 80.0859 25.7293 79.3301 25.7175C77.9954 25.7175 76.9376 25.3013 76.1567 24.469C75.3757 23.6367 74.9843 22.535 74.9823 21.1638V12.6656H77.9994V20.4767C77.9994 22.0934 78.7233 22.9017 80.1711 22.9017C80.4577 22.9083 80.7426 22.8553 81.0083 22.7459C81.274 22.6364 81.5147 22.473 81.7157 22.2655C82.3285 21.6937 82.6344 20.7386 82.6334 19.4004L82.6349 12.6656ZM106.004 16.8047V25.4001H103.014V17.4903C103.014 16.657 102.873 16.0362 102.592 15.6281C102.31 15.2199 101.808 15.0158 101.084 15.0158C100.715 15.0059 100.35 15.0981 100.029 15.2828C99.7075 15.4674 99.4418 15.7374 99.2604 16.0637C98.8282 16.7818 98.6066 17.61 98.6216 18.4513V25.4061H95.6208V17.4903C95.6208 16.657 95.4801 16.0362 95.1988 15.6281C94.9175 15.2199 94.4149 15.0158 93.691 15.0158C93.3206 15.0074 92.9548 15.1002 92.6319 15.2846C92.309 15.469 92.0409 15.7381 91.8557 16.0637C91.419 16.7779 91.1951 17.605 91.211 18.4453V25.4001H88.2116V12.6656H90.7197L90.9631 14.3572C91.7667 13.0179 92.9573 12.3483 94.5349 12.3483C96.2571 12.3483 97.4561 13.0424 98.1318 14.4305C98.9186 13.0424 100.182 12.3483 101.92 12.3483C103.225 12.3483 104.23 12.7524 104.938 13.5608C105.645 14.3691 105.999 15.4504 106 16.8047H106.004ZM69.4218 10.9022H72.6572V7.74368H69.4218V10.9022ZM47.634 13.6207C48.3903 14.4699 48.7685 15.5637 48.7685 16.902V25.4001H45.7514V17.5382C45.7514 16.7548 45.5946 16.163 45.2808 15.7628C44.9671 15.3626 44.432 15.163 43.6756 15.164C43.2884 15.1506 42.9048 15.2451 42.5667 15.4372C42.2286 15.6293 41.9488 15.9117 41.7577 16.2538C41.3135 16.9854 41.0833 17.8301 41.0938 18.6893V25.4001H38.0767V7.71823H41.0938V14.0129C41.4656 13.4751 41.976 13.0515 42.5691 12.7884C43.1809 12.4973 43.8483 12.3465 44.524 12.3468C45.8409 12.3468 46.8776 12.7714 47.634 13.6207ZM53.3125 17.7597C53.3062 17.0431 53.5351 16.3448 53.9632 15.7748C54.4471 15.1221 55.1474 14.7958 56.064 14.7958C56.8843 14.7958 57.5197 15.0408 57.9702 15.5308C58.4689 16.0866 58.7265 16.8296 58.7433 17.7597H53.3125ZM56.0877 12.3468C54.4471 12.3468 53.1114 12.8857 52.0806 13.9635C50.8738 15.2209 50.2704 16.9174 50.2704 19.0531C50.2704 21.1887 50.9141 22.8852 52.2016 24.1427C53.2835 25.1875 54.603 25.71 56.1599 25.71C57.9776 25.71 59.3855 25.1142 60.3838 23.9226C61.0113 23.1562 61.3654 22.3728 61.4461 21.5724H58.55C58.4464 21.9791 58.2381 22.3505 57.9466 22.6487C57.5443 23.0579 56.9325 23.262 56.1113 23.261C55.4145 23.2592 54.7468 22.9777 54.2538 22.4781C53.6086 21.8564 53.3027 21.0236 53.3362 19.9797H61.7352C61.7352 19.8001 61.7441 19.5141 61.7589 19.1234C61.808 17.36 61.4461 15.8826 60.673 14.691C59.6432 13.1292 58.1148 12.3478 56.0877 12.3468Z" fill="white"/>
</g>
<defs>
<clipPath id="clip0_417_12276">
<rect width="106" height="35" fill="white"/>
</clipPath>
</defs>
</svg>
