<svg width="80" height="26" viewBox="0 0 80 26" fill="none" xmlns="http://www.w3.org/2000/svg">
<g clip-path="url(#clip0_315_6760)">
<mask id="mask0_315_6760" style="mask-type:luminance" maskUnits="userSpaceOnUse" x="0" y="0" width="80" height="26">
<path d="M79.5088 0.5H0.508789V25.5H79.5088V0.5Z" fill="white"/>
</mask>
<g mask="url(#mask0_315_6760)">
<path d="M6.54837 6.49765H7.45377V20.3596C7.45377 23.4289 5.07862 25.4999 0.508789 25.4999V22.5851C2.471 22.5851 3.45134 21.767 3.45134 20.1036V6.49765H6.54837ZM3.89028 4.24641C3.68185 4.04501 3.51622 3.80434 3.40312 3.53857C3.29003 3.27279 3.23176 2.98729 3.23176 2.69887C3.23176 2.41045 3.29003 2.12494 3.40312 1.85917C3.51622 1.59339 3.68185 1.35272 3.89028 1.15133C4.09359 0.944865 4.33655 0.780791 4.60486 0.668764C4.87317 0.556737 5.16139 0.499023 5.45256 0.499023C5.74373 0.499023 6.03195 0.556737 6.30025 0.668764C6.56856 0.780791 6.81152 0.944865 7.01483 1.15133C7.22326 1.35272 7.38891 1.59339 7.502 1.85917C7.61509 2.12494 7.67335 2.41045 7.67335 2.69887C7.67335 2.98729 7.61509 3.27279 7.502 3.53857C7.38891 3.80434 7.22326 4.04501 7.01483 4.24641C6.81152 4.45287 6.56856 4.61695 6.30025 4.72897C6.03195 4.841 5.74373 4.89871 5.45256 4.89871C5.16139 4.89871 4.87317 4.841 4.60486 4.72897C4.33655 4.61695 4.09359 4.45287 3.89028 4.24641Z" fill="#F9F7F4"/>
<path d="M19.0404 6.49756H23.0429V19.6172H19.0404V17.6993C18.4345 18.3967 17.6809 18.9533 16.8332 19.3296C15.9854 19.7059 15.0645 19.8925 14.1357 19.8763C11.1396 19.8763 9.15137 18.0356 9.15137 14.583V6.50059H13.1553V13.0741C13.1553 15.3465 14.0592 16.5009 15.893 16.5009C17.6487 16.5009 19.042 15.145 19.042 12.459L19.0404 6.49756Z" fill="#F9F7F4"/>
<path d="M48.0166 11.5441V19.6249H44.0157V12.9242C44.0157 10.7245 43.1633 9.62513 41.4585 9.62614C39.8068 9.62614 38.386 11.0063 38.386 13.6666V19.6249H34.3835V12.9242C34.3835 10.7245 33.5317 9.62513 31.8279 9.62614C30.1762 9.62614 28.7554 11.0063 28.7554 13.6666V19.6249H24.7529V6.5053H28.7554V8.3975C30.0722 6.96585 31.6215 6.24927 33.4552 6.24927C35.7783 6.24927 37.2787 7.14462 37.973 8.93531C39.3944 7.13957 41.0986 6.2417 43.0858 6.2417C46.1584 6.2417 48.0166 7.87786 48.0166 11.5441Z" fill="#F9F7F4"/>
<path d="M62.8961 8.03215C64.1869 9.25927 64.8323 10.9212 64.8323 13.0452C64.8323 15.1692 64.1869 16.8326 62.8961 18.0325C61.6053 19.2596 59.978 19.8732 57.9898 19.8732C56.2341 19.8732 54.8138 19.3106 53.7289 18.1855V25.2453H49.728V6.49748H53.7289V7.90792C54.8138 6.78381 56.2341 6.22125 57.9898 6.22024C59.978 6.2157 61.6053 6.82926 62.8961 8.03215ZM60.6495 13.0452C60.6495 10.6925 59.1782 9.13201 57.19 9.13201C55.2277 9.13201 53.7289 10.6152 53.7289 13.0452C53.7289 15.4752 55.2277 16.9584 57.19 16.9584C59.1782 16.9584 60.6495 15.398 60.6495 13.0452Z" fill="#F9F7F4"/>
<path d="M79.0283 15.9912V19.0895H66.5171V15.9912H79.0283Z" fill="white"/>
</g>
</g>
<defs>
<clipPath id="clip0_315_6760">
<rect width="80" height="26" fill="white"/>
</clipPath>
</defs>
</svg>
