<svg width="132" height="27" viewBox="0 0 132 27" fill="none" xmlns="http://www.w3.org/2000/svg">
<g clip-path="url(#clip0_315_6732)">
<path d="M4.32481 17.8059C4.32481 19.358 4.66038 20.5497 5.09899 21.2706C5.67405 22.2149 6.53177 22.615 7.4062 22.615C8.53405 22.615 9.56582 22.3308 11.5542 19.539C13.1471 17.3012 15.0241 14.1602 16.287 12.191L18.4257 8.85487C19.9114 6.53796 21.631 3.96236 23.6027 2.21654C25.2123 0.791623 26.9486 0 28.6961 0C31.6299 0 34.4244 1.72602 36.5632 4.96319C38.9038 8.50853 40.04 12.9741 40.04 17.5825C40.04 20.3221 39.5081 22.3351 38.603 23.9254C37.7286 25.4634 36.0243 27 33.1573 27V22.615C35.6122 22.615 36.2248 20.3249 36.2248 17.7041C36.2248 13.9693 35.3671 9.82461 33.4776 6.86309C32.1367 4.76246 30.399 3.4789 28.4872 3.4789C26.4195 3.4789 24.7556 5.06215 22.8856 7.88513C21.8914 9.38497 20.8708 11.2128 19.7248 13.2752L18.4633 15.5441C15.9291 20.1058 15.2872 21.1448 14.0201 22.8595C11.7992 25.862 9.90278 27 7.4062 27C4.44456 27 2.57177 25.6981 1.4119 23.736C0.465063 22.1372 0 20.0394 0 17.649L4.32481 17.8059Z" fill="white"/>
<path d="M3.41 5.27277C5.39279 2.16989 8.25418 0 11.5361 0C13.4367 0 15.3262 0.571099 17.2992 2.20665C19.4575 3.99487 21.7577 6.93942 24.6275 11.7924L25.6565 13.5339C28.1405 17.7352 29.5538 19.8966 30.3809 20.9158C31.4447 22.2248 32.1896 22.615 33.1573 22.615C35.6122 22.615 36.2248 20.3249 36.2248 17.7041L40.04 17.5825C40.04 20.3221 39.5081 22.3351 38.603 23.9254C37.7286 25.4634 36.0243 27 33.1573 27C31.3751 27 29.7961 26.607 28.05 24.9347C26.7077 23.6512 25.1385 21.371 23.9313 19.3213L20.3403 13.2314C18.5385 10.1752 16.8857 7.89644 15.9291 6.8645C14.9001 5.75482 13.5773 4.41471 11.4665 4.41471C9.75798 4.41471 8.30709 5.63183 7.09291 7.49356L3.41 5.27277Z" fill="white"/>
<path d="M11.4665 4.41471C9.75797 4.41471 8.30709 5.63183 7.09291 7.49356C5.37608 10.1243 4.32481 14.0428 4.32481 17.8059C4.32481 19.358 4.66038 20.5497 5.09899 21.2706L1.4119 23.736C0.465063 22.1372 0 20.0394 0 17.649C0 13.3021 1.17519 8.77147 3.41 5.27278C5.39278 2.1699 8.25418 0 11.5361 0L11.4665 4.41471Z" fill="white"/>
<path d="M48.4473 0.853821H53.4502L61.9564 16.4771L70.464 0.853821H75.3583V26.525H71.2772V6.85036L63.8167 20.4748H59.9876L52.5285 6.85036V26.525H48.4473V0.853821ZM88.1462 10.4254C85.2193 10.4254 83.4566 12.6617 83.0347 15.431H92.9681C92.7634 12.5783 91.1426 10.4254 88.1462 10.4254ZM78.9883 17.0086C78.9883 11.1817 82.6977 6.94084 88.2172 6.94084C93.6462 6.94084 96.8877 11.128 96.8877 17.3196V18.4575H83.0347C83.5262 21.4699 85.495 23.4999 88.6697 23.4999C91.2025 23.4999 92.7857 22.7153 94.2867 21.2805L96.4547 23.9763C94.412 25.8832 91.8138 26.983 88.5249 26.983C82.5501 26.983 78.9883 22.5598 78.9883 17.0086ZM101.836 10.7929H98.0796V7.40026H101.836V1.78963H105.774V7.40026H111.482V10.7929H105.774V19.3919C105.774 22.328 106.699 23.3713 108.971 23.3713C110.008 23.3713 110.603 23.2808 111.482 23.1324V26.4883C110.387 26.8021 109.343 26.9463 108.212 26.9463C103.961 26.9463 101.836 24.5884 101.836 19.8683V10.7929ZM128.062 14.0923C127.271 12.0652 125.507 10.5724 122.915 10.5724C119.545 10.5724 117.388 12.9996 117.388 16.9535C117.388 20.8084 119.374 23.3529 122.753 23.3529C125.41 23.3529 127.306 21.7838 128.062 19.8316V14.0923ZM132 26.525H128.135V23.8476C127.054 25.4238 125.088 26.983 121.904 26.983C116.782 26.983 113.36 22.6305 113.36 16.9535C113.36 11.2227 116.865 6.94084 122.121 6.94084C124.719 6.94084 126.758 7.99539 128.135 9.85712V7.40026H132V26.525Z" fill="white"/>
</g>
<defs>
<clipPath id="clip0_315_6732">
<rect width="132" height="27" fill="white"/>
</clipPath>
</defs>
</svg>
