<svg width="147" height="32" viewBox="0 0 147 32" fill="none" xmlns="http://www.w3.org/2000/svg">
<g clip-path="url(#clip0_417_12254)">
<path fill-rule="evenodd" clip-rule="evenodd" d="M31.962 16.0188C31.962 24.8386 24.8256 32 15.981 32C7.17438 32 0 24.8386 0 15.9812C0 7.16137 7.17438 0 15.981 0C24.8256 0 32 7.16137 31.962 16.0188ZM16.7782 6.40754H18.5243C22.0546 6.40754 25.0154 9.15901 25.0534 12.8151C25.1293 16.3958 22.2064 19.3357 18.6382 19.3357H17.1198H16.6643L15.8671 24.3863C15.7533 25.0271 15.2218 25.4794 14.6145 25.4794H13.2479H11.5777H10.363C9.56583 25.4794 8.99644 24.8009 9.11032 24.0094L9.26215 23.0294L9.52787 21.1826L10.4009 15.6796H8.80664C8.31316 15.6796 7.89561 15.265 7.89561 14.775C7.89561 14.285 8.31316 13.8704 8.80664 13.8704H10.7046V13.7197L10.9703 11.9482H9.37603C8.88256 11.9105 8.465 11.5336 8.465 11.0059C8.465 10.5159 8.88256 10.1013 9.37603 10.1013H11.274V10.0636L11.6536 7.50059C11.7295 6.85983 12.2989 6.40754 12.9063 6.40754H16.7782ZM18.5243 11.9105L12.8304 11.8728L12.5267 13.7951H18.5243C19.0557 13.7951 19.4733 13.3804 19.4733 12.8528C19.4733 12.3251 19.0178 11.9105 18.5243 11.9105ZM17.6133 17.3757H18.5623C21.0676 17.3757 23.1554 15.4158 23.2313 12.9282C23.2693 10.3651 21.2194 8.25442 18.6382 8.25442H13.3998L13.134 10.0636L18.5243 10.1013C20.0427 10.1013 21.2954 11.3451 21.2954 12.8528C21.2954 14.3604 20.0427 15.6042 18.5243 15.6042H12.223L11.0083 23.5194H14.159L14.9561 18.4688C15.07 17.828 15.6014 17.3757 16.2088 17.3757H17.1578H17.6133Z" fill="white"/>
</g>
<path d="M46.8331 27V5.90909H55.1541C56.7538 5.90909 58.1166 6.21461 59.2425 6.82564C60.3685 7.42981 61.2267 8.27083 61.8171 9.34872C62.4144 10.4197 62.7131 11.6555 62.7131 13.0561C62.7131 14.4567 62.411 15.6925 61.8068 16.7635C61.2027 17.8345 60.3273 18.6687 59.1808 19.266C58.0411 19.8633 56.6611 20.1619 55.0408 20.1619H49.7372V16.5884H54.32C55.1781 16.5884 55.8853 16.4408 56.4414 16.1456C57.0044 15.8435 57.4232 15.4281 57.6978 14.8995C57.9793 14.364 58.12 13.7495 58.12 13.0561C58.12 12.3558 57.9793 11.7448 57.6978 11.223C57.4232 10.6944 57.0044 10.2859 56.4414 9.99751C55.8784 9.7023 55.1644 9.55469 54.2994 9.55469H51.2923V27H46.8331ZM64.3737 5.90909H69.3683L74.1776 14.9922H74.3836L79.1929 5.90909H84.1876L76.4948 19.544V27H72.0665V19.544L64.3737 5.90909ZM99.6505 5.90909H104.11V19.6058C104.11 21.1437 103.742 22.4893 103.008 23.6428C102.28 24.7962 101.26 25.6955 99.9491 26.3409C98.6378 26.9794 97.1102 27.2987 95.3664 27.2987C93.6157 27.2987 92.0847 26.9794 90.7733 26.3409C89.462 25.6955 88.4425 24.7962 87.7148 23.6428C86.987 22.4893 86.6231 21.1437 86.6231 19.6058V5.90909H91.0823V19.2248C91.0823 20.0281 91.2574 20.7421 91.6075 21.3668C91.9645 21.9916 92.4657 22.4825 93.1111 22.8395C93.7564 23.1965 94.5082 23.375 95.3664 23.375C96.2314 23.375 96.9832 23.1965 97.6217 22.8395C98.2671 22.4825 98.7648 21.9916 99.115 21.3668C99.472 20.7421 99.6505 20.0281 99.6505 19.2248V5.90909ZM119.22 11.9748C119.137 11.1441 118.784 10.4987 118.159 10.0387C117.534 9.57872 116.686 9.34872 115.615 9.34872C114.888 9.34872 114.273 9.4517 113.772 9.65767C113.271 9.85677 112.886 10.1348 112.619 10.4918C112.358 10.8488 112.227 11.2539 112.227 11.707C112.214 12.0846 112.292 12.4142 112.464 12.6957C112.643 12.9772 112.886 13.2209 113.195 13.4268C113.504 13.6259 113.861 13.801 114.266 13.9521C114.671 14.0962 115.104 14.2198 115.564 14.3228L117.459 14.7759C118.379 14.9819 119.223 15.2565 119.992 15.5998C120.761 15.9431 121.427 16.3653 121.99 16.8665C122.553 17.3677 122.989 17.9581 123.298 18.6378C123.614 19.3175 123.775 20.0967 123.782 20.9755C123.775 22.2662 123.446 23.3853 122.793 24.3327C122.148 25.2733 121.214 26.0045 119.992 26.5263C118.777 27.0412 117.311 27.2987 115.595 27.2987C113.892 27.2987 112.409 27.0378 111.146 26.516C109.89 25.9942 108.908 25.2218 108.201 24.1989C107.5 23.169 107.133 21.8955 107.099 20.3782H111.414C111.462 21.0853 111.664 21.6758 112.021 22.1495C112.385 22.6164 112.869 22.9699 113.473 23.2102C114.084 23.4437 114.774 23.5604 115.543 23.5604C116.299 23.5604 116.954 23.4505 117.51 23.2308C118.073 23.0111 118.509 22.7056 118.818 22.3143C119.127 21.9229 119.282 21.4732 119.282 20.9652C119.282 20.4915 119.141 20.0933 118.859 19.7706C118.585 19.4479 118.18 19.1733 117.644 18.9467C117.116 18.7202 116.467 18.5142 115.698 18.3288L113.401 17.7521C111.623 17.3196 110.219 16.6433 109.189 15.7234C108.159 14.8034 107.648 13.5642 107.655 12.0057C107.648 10.7287 107.988 9.61304 108.674 8.65874C109.368 7.70443 110.319 6.95952 111.527 6.42401C112.735 5.88849 114.108 5.62074 115.646 5.62074C117.212 5.62074 118.578 5.88849 119.745 6.42401C120.919 6.95952 121.832 7.70443 122.484 8.65874C123.137 9.61304 123.473 10.7184 123.494 11.9748H119.22ZM134.258 27H126.781V5.90909H134.32C136.441 5.90909 138.267 6.33132 139.798 7.17578C141.329 8.01338 142.507 9.21828 143.331 10.7905C144.161 12.3627 144.577 14.2438 144.577 16.4339C144.577 18.6309 144.161 20.5189 143.331 22.098C142.507 23.6771 141.323 24.8888 139.778 25.7333C138.24 26.5778 136.4 27 134.258 27ZM131.241 23.1793H134.073C135.391 23.1793 136.499 22.9459 137.399 22.479C138.305 22.0053 138.985 21.2741 139.438 20.2855C139.898 19.29 140.128 18.0062 140.128 16.4339C140.128 14.8755 139.898 13.6019 139.438 12.6133C138.985 11.6246 138.309 10.8969 137.409 10.43C136.51 9.96319 135.401 9.72976 134.083 9.72976H131.241V23.1793Z" fill="white"/>
<defs>
<clipPath id="clip0_417_12254">
<rect width="32" height="32" fill="white"/>
</clipPath>
</defs>
</svg>
