<svg width="127" height="36" viewBox="0 0 127 36" fill="none" xmlns="http://www.w3.org/2000/svg">
<g clip-path="url(#clip0_315_6719)">
<path fill-rule="evenodd" clip-rule="evenodd" d="M26.9875 6.5285C27.1128 6.54922 27.2799 6.63213 27.3008 6.81866C27.3217 6.98446 31.1651 32.7876 31.1651 32.7876L21.7446 35.1088L0 31.3782C0 31.3782 2.59013 11.4611 2.69457 10.7772C2.8199 9.84456 2.86168 9.82384 3.84342 9.51296C3.85827 9.49822 4.55969 9.28436 5.66976 8.9459C6.12074 8.80839 6.63917 8.65032 7.20641 8.47669C7.4153 6.98446 8.14638 5.057 9.12813 3.52332C10.5276 1.32643 12.2196 0.103628 13.9324 0.0621775C14.8097 0.0414521 15.5408 0.331607 16.1257 0.953369C16.1674 1.01553 16.2092 1.05698 16.251 1.09842L16.251 1.09845C16.3345 1.07772 16.439 1.07772 16.5225 1.07772C17.8594 1.07772 18.9456 1.82384 19.6975 3.25389C19.9273 3.68912 20.0944 4.12435 20.1988 4.47669C20.8673 4.26943 21.2641 4.14508 21.2641 4.14508C21.4312 4.10363 21.8281 4.04145 22.037 4.24871C22.2459 4.45596 24.3556 6.48705 24.3556 6.48705C24.3556 6.48705 26.8622 6.50777 26.9875 6.5285ZM18.2667 5.06649C18.5661 4.97295 18.8481 4.88485 19.1127 4.80829C18.8411 3.93783 18.2145 2.48705 16.8985 2.23834C17.2954 3.27461 17.3998 4.47669 17.4207 5.32643C17.7167 5.23833 17.9987 5.15023 18.2667 5.06649ZM15.4122 5.94819C15.7103 5.85707 16.0042 5.76726 16.2928 5.67876C16.2928 4.74612 16.2092 3.35751 15.7288 2.38342C15.2275 2.59067 14.8097 2.94301 14.4964 3.27461C13.6817 4.14508 13.0133 5.4715 12.6582 6.79793C13.5967 6.50306 14.5235 6.21981 15.4122 5.94819ZM14.9768 1.4715C14.6844 1.28498 14.3502 1.20207 13.9533 1.20207C11.3214 1.28498 9.02368 5.36788 8.39704 8.10363C8.48742 8.07573 8.57837 8.04764 8.66989 8.01938C9.5302 7.75369 10.4401 7.4727 11.384 7.19171C11.7183 5.45078 12.5538 3.6684 13.64 2.50777C14.0577 2.05181 14.5173 1.69948 14.9768 1.4715ZM15.4364 15.399L16.5225 11.3368C16.5225 11.3368 15.5826 10.8601 13.7026 11.0259C8.91925 11.3368 6.74688 14.6528 6.95576 17.9275C7.09646 20.1028 8.39539 21.018 9.53386 21.8201C10.4237 22.4471 11.2155 23.0049 11.2796 24.0414C11.3214 24.6218 10.9663 25.43 9.96366 25.4922C8.43882 25.5751 6.51711 24.1451 6.51711 24.1451L5.78603 27.2332C5.78603 27.2332 7.68685 29.2435 11.1543 29.0363C14.0368 28.8497 16.0421 26.5699 15.8332 23.2124C15.6691 20.6439 13.8483 19.4842 12.4062 18.5658C11.4629 17.965 10.6816 17.4674 10.6321 16.7461C10.6112 16.3938 10.6321 15.0674 12.7627 14.943C14.2248 14.8394 15.4364 15.399 15.4364 15.399Z" fill="white"/>
<path d="M26.9875 6.5285C26.8622 6.50778 24.3556 6.48705 24.3556 6.48705C24.3556 6.48705 22.2459 4.45597 22.037 4.24871C21.9534 4.16581 21.849 4.12436 21.7446 4.12436V35.1088L31.1651 32.7876C31.1651 32.7876 27.3217 7.00519 27.3008 6.81866C27.259 6.63213 27.1128 6.54923 26.9875 6.5285Z" fill="white"/>
<path d="M43.9278 20C42.8416 19.4197 42.2776 18.9223 42.2776 18.2383C42.2776 17.3679 43.0505 16.8083 44.2829 16.8083C45.7033 16.8083 46.9566 17.3886 46.9566 17.3886L47.9592 14.3627C47.9592 14.3627 47.0401 13.658 44.3456 13.658C40.5857 13.658 37.9747 15.7927 37.9747 18.7979C37.9747 20.4974 39.1862 21.8031 40.8155 22.7358C42.1314 23.4819 42.591 24 42.591 24.7876C42.591 25.5959 41.9434 26.2383 40.711 26.2383C38.8938 26.2383 37.1809 25.3057 37.1809 25.3057L36.1156 28.3316C36.1156 28.3316 37.7031 29.3886 40.3559 29.3886C44.2202 29.3886 46.9984 27.5026 46.9984 24.1036C47.0193 22.2591 45.6197 20.9534 43.9278 20ZM59.3433 13.6166C57.4424 13.6166 55.9385 14.5078 54.7896 15.8756L54.727 15.8549L56.3771 7.27461H52.0742L47.8966 29.0984H52.1995L53.6408 21.6373C54.2048 18.8187 55.6669 17.0777 57.0456 17.0777C58.0064 17.0777 58.3824 17.7202 58.3824 18.6528C58.3824 19.2332 58.3197 19.9585 58.1944 20.5389L56.5651 29.0777H60.8681L62.56 20.2487C62.748 19.3161 62.8734 18.1969 62.8734 17.4715C62.8734 15.0881 61.5783 13.6166 59.3433 13.6166ZM72.6072 13.6166C67.427 13.6166 64.0013 18.2591 64.0013 23.4404C64.0013 26.7565 66.0692 29.4093 69.9336 29.4093C75.0094 29.4093 78.4559 24.8912 78.4559 19.5855C78.435 16.5389 76.6178 13.6166 72.6072 13.6166ZM70.4766 26.1347C69.0145 26.1347 68.3878 24.8912 68.3878 23.3575C68.3878 20.9119 69.662 16.9119 72.0015 16.9119C73.5263 16.9119 74.0276 18.2176 74.0276 19.4819C74.0276 22.114 72.7535 26.1347 70.4766 26.1347ZM89.4431 13.6166C86.5396 13.6166 84.8895 16.1451 84.8895 16.1451H84.8268L85.0775 13.8446H81.2758C81.0878 15.399 80.7536 17.7409 80.3985 19.5026L77.4115 35.1295H81.7145L82.9051 28.8083H82.9887C82.9887 28.8083 83.866 29.3679 85.5161 29.3679C90.5711 29.3679 93.8714 24.228 93.8714 19.0259C93.8923 16.1865 92.5972 13.6166 89.4431 13.6166ZM85.3281 26.1969C84.2002 26.1969 83.5526 25.5751 83.5526 25.5751L84.2628 21.5751C84.7641 18.9223 86.1637 17.1399 87.6676 17.1399C88.9836 17.1399 89.3804 18.342 89.3804 19.5026C89.3804 22.2591 87.7303 26.1969 85.3281 26.1969ZM100.033 7.50259C98.6548 7.50259 97.5686 8.58031 97.5686 9.98964C97.5686 11.2539 98.3832 12.1244 99.5947 12.1244H99.6574C100.994 12.1244 102.164 11.2332 102.185 9.63731C102.185 8.39378 101.349 7.50259 100.033 7.50259ZM94.0176 29.0984H98.3206L101.245 13.9689H96.9002L94.0176 29.0984ZM112.19 13.9275H109.203L109.35 13.2228C109.6 11.772 110.477 10.4663 111.898 10.4663C112.671 10.4663 113.276 10.6736 113.276 10.6736L114.112 7.33679C114.112 7.33679 113.36 6.96373 111.773 6.96373C110.248 6.96373 108.723 7.39896 107.553 8.39378C106.091 9.63731 105.402 11.4197 105.047 13.2228L104.921 13.9275H102.916L102.289 17.1399H104.295L102.018 29.0984H106.321L108.598 17.1399H111.564L112.19 13.9275ZM122.551 13.9689C122.551 13.9689 119.856 20.7047 118.645 24.3731H118.582C118.499 23.1917 117.517 13.9689 117.517 13.9689H113.005L115.595 27.8756C115.658 28.1865 115.616 28.3731 115.512 28.5803C115.01 29.5337 114.175 30.4663 113.172 31.1503C112.357 31.7306 111.459 32.1036 110.728 32.3523L111.919 35.9793C112.796 35.7927 114.592 35.0881 116.138 33.658C118.102 31.8342 119.919 29.0155 121.778 25.1813L127.042 13.9689H122.551Z" fill="white"/>
</g>
<defs>
<clipPath id="clip0_315_6719">
<rect width="127" height="36" fill="white"/>
</clipPath>
</defs>
</svg>
