<svg width="78" height="33" viewBox="0 0 78 33" fill="none" xmlns="http://www.w3.org/2000/svg">
<g clip-path="url(#clip0_315_6750)">
<path fill-rule="evenodd" clip-rule="evenodd" d="M77.9957 17.0462C77.9957 11.4082 75.3092 6.95943 70.1745 6.95943C65.0181 6.95943 61.8983 11.4082 61.8983 17.0021C61.8983 23.6312 65.5814 26.9788 70.8678 26.9788C73.4459 26.9788 75.3958 26.3841 76.8691 25.5473V21.1426C75.3958 21.8914 73.7059 22.3538 71.561 22.3538C69.4595 22.3538 67.5963 21.605 67.3579 19.0063H77.9524C77.9524 18.72 77.9957 17.5748 77.9957 17.0462ZM67.293 14.954C67.293 12.4653 68.7879 11.4302 70.1528 11.4302C71.4744 11.4302 72.8826 12.4653 72.8826 14.954H67.293Z" fill="white"/>
<path fill-rule="evenodd" clip-rule="evenodd" d="M53.5354 6.95943C51.4122 6.95943 50.0472 7.97251 49.289 8.67726L49.0073 7.3118H44.2409V32.9912L49.6573 31.8239L49.6789 25.5913C50.4589 26.1639 51.6072 26.9788 53.5137 26.9788C57.3918 26.9788 60.9233 23.8074 60.9233 16.826C60.9016 10.4391 57.3268 6.95943 53.5354 6.95943ZM52.2355 22.1336C50.9572 22.1336 50.1989 21.6711 49.6789 21.0985L49.6573 12.9278C50.2206 12.2891 51.0005 11.8486 52.2355 11.8486C54.207 11.8486 55.5719 14.095 55.5719 16.9801C55.5719 19.9313 54.2287 22.1336 52.2355 22.1336Z" fill="white"/>
<path fill-rule="evenodd" clip-rule="evenodd" d="M36.788 5.66004L42.226 4.47077V0L36.788 1.16724V5.66004Z" fill="white"/>
<path d="M42.226 7.33382H36.788V26.6044H42.226V7.33382Z" fill="white"/>
<path fill-rule="evenodd" clip-rule="evenodd" d="M30.9599 8.96356L30.6133 7.33382H25.9335V26.6044H31.3499V13.5444C32.6282 11.8486 34.7947 12.157 35.4663 12.3992V7.33382C34.773 7.06954 32.2382 6.58502 30.9599 8.96356Z" fill="white"/>
<path fill-rule="evenodd" clip-rule="evenodd" d="M20.1272 2.55472L14.8408 3.69994L14.8192 21.3408C14.8192 24.6002 17.224 27.0008 20.4305 27.0008C22.2071 27.0008 23.507 26.6704 24.222 26.274V21.8032C23.5287 22.0896 20.1055 23.1026 20.1055 19.8432V12.0248H24.222V7.33382H20.1055L20.1272 2.55472Z" fill="white"/>
<path fill-rule="evenodd" clip-rule="evenodd" d="M5.48136 12.9278C5.48136 12.0689 6.17466 11.7385 7.32293 11.7385C8.9695 11.7385 11.0494 12.2451 12.696 13.148V7.97251C10.8977 7.24573 9.12116 6.95943 7.32293 6.95943C2.92484 6.95943 0 9.29392 0 13.1921C0 19.2706 8.23288 18.3015 8.23288 20.9223C8.23288 21.9354 7.36626 22.2658 6.15299 22.2658C4.35476 22.2658 2.05822 21.517 0.23832 20.5039V25.7455C2.25321 26.6264 4.28976 27.0008 6.15299 27.0008C10.6594 27.0008 13.7576 24.7324 13.7576 20.7902C13.7359 14.2272 5.48136 15.3944 5.48136 12.9278Z" fill="white"/>
</g>
<defs>
<clipPath id="clip0_315_6750">
<rect width="78" height="33" fill="white"/>
</clipPath>
</defs>
</svg>
