<svg width="121" height="26" viewBox="0 0 121 26" fill="none" xmlns="http://www.w3.org/2000/svg">
<path fill-rule="evenodd" clip-rule="evenodd" d="M40.459 24.9432H33.647V18.7657H40.3519V20.1339H35.4697V21.1858H40.0915V22.4762H35.4724V23.5402H40.459V24.9458V24.9432Z" fill="white"/>
<path fill-rule="evenodd" clip-rule="evenodd" d="M79.6519 24.9432H72.9471V18.8636H79.5475V20.2036H74.744V21.238H79.2925V22.507H74.744V23.5549H79.6519V24.9391V24.9432Z" fill="white"/>
<path fill-rule="evenodd" clip-rule="evenodd" d="M49.6958 24.9432H46.9401L43.311 20.3228H43.2757V24.9432H41.472V18.7657H44.2725L47.8568 23.3914H47.8921V18.7657H49.6999V24.9432H49.6958Z" fill="white"/>
<path fill-rule="evenodd" clip-rule="evenodd" d="M71.5381 24.9432H68.7824L65.1534 20.3228H65.1181V24.9432H63.3063V18.7657H66.1067L69.6911 23.3914H69.7263V18.7657H71.5381V24.9432Z" fill="white"/>
<path fill-rule="evenodd" clip-rule="evenodd" d="M55.0215 25.0249C54.4438 25.0249 53.9465 25.0106 53.5297 24.982C53.1678 24.9638 52.8085 24.9108 52.457 24.8239C52.1993 24.7604 51.9566 24.648 51.7423 24.4929C51.5548 24.3485 51.4074 24.1594 51.3138 23.9435C51.2011 23.6819 51.1293 23.405 51.1009 23.1221C51.0628 22.7427 51.0451 22.3616 51.048 21.9804V21.7995C51.0452 21.4155 51.0638 21.0317 51.1036 20.6498C51.1303 20.3657 51.2007 20.0874 51.3124 19.8243C51.4074 19.6092 51.5552 19.4208 51.7423 19.2763C51.9568 19.1222 52.2002 19.0119 52.4584 18.952C52.8091 18.8657 53.1674 18.8132 53.5284 18.7952C53.9488 18.7684 54.446 18.755 55.0201 18.755H55.2914C55.7724 18.755 56.1937 18.7653 56.5553 18.7858C56.8682 18.8012 57.1796 18.8388 57.487 18.8984C57.7118 18.94 57.929 19.015 58.1312 19.1208C58.2938 19.2062 58.4333 19.3289 58.538 19.4786C58.6417 19.6366 58.7114 19.8141 58.7428 19.9999C58.7834 20.234 58.8024 20.4712 58.7998 20.7087V20.9459H57.0367V20.8709C57.0401 20.7496 57.0175 20.6291 56.9703 20.5171C56.9151 20.4121 56.823 20.3306 56.7113 20.288C56.5375 20.2215 56.3547 20.1809 56.1688 20.1674C55.9356 20.145 55.6282 20.1334 55.2466 20.1325H55.092C54.7457 20.1325 54.4501 20.1383 54.2051 20.1499C53.9993 20.157 53.7946 20.1826 53.5935 20.2263C53.454 20.2558 53.3224 20.3138 53.207 20.3965C53.1082 20.474 53.0339 20.5776 52.9927 20.6953C52.9416 20.8469 52.9115 21.0047 52.9032 21.1643C52.8896 21.3506 52.8828 21.5744 52.8828 21.8343V21.9442C52.8828 22.2001 52.8896 22.4186 52.9032 22.6008C52.9118 22.7573 52.9419 22.9119 52.9927 23.0604C53.034 23.1774 53.1083 23.2801 53.207 23.3566C53.3224 23.4393 53.454 23.4973 53.5935 23.5267C53.7946 23.5704 53.9993 23.596 54.2051 23.6031C54.4501 23.6156 54.7457 23.6214 55.092 23.6206H55.2466C55.5287 23.6206 55.7715 23.6205 55.9749 23.6058C56.1783 23.5911 56.3505 23.579 56.4902 23.5576C56.6051 23.5417 56.7173 23.5106 56.8238 23.4651C56.8999 23.4315 56.9665 23.38 57.0178 23.315C57.0645 23.253 57.0956 23.1809 57.1086 23.1046C57.1236 23.0107 57.1309 22.9157 57.1303 22.8206V22.649H54.7313V21.4564H58.8716V22.8286C58.8746 23.0902 58.8551 23.3515 58.8133 23.6098C58.7798 23.8145 58.7081 24.0113 58.6018 24.1901C58.4994 24.3533 58.3602 24.4909 58.1949 24.5921C57.992 24.7117 57.7708 24.7981 57.5399 24.848C57.2276 24.9177 56.9101 24.9625 56.5906 24.982C56.2217 25.0088 55.7932 25.0222 55.3022 25.0222L55.0215 25.0249Z" fill="white"/>
<path fill-rule="evenodd" clip-rule="evenodd" d="M61.9771 24.9579H60.145V18.826H61.9771V24.9579Z" fill="white"/>
<path fill-rule="evenodd" clip-rule="evenodd" d="M40.1857 15.5296C39.2996 15.5296 38.523 15.506 37.8558 15.4586C37.2743 15.425 36.6964 15.3448 36.128 15.2188C35.705 15.1285 35.2991 14.973 34.9251 14.7578C34.6186 14.5754 34.3583 14.326 34.1643 14.0288C33.9642 13.71 33.8284 13.356 33.7643 12.9863C33.6807 12.5202 33.6416 12.0473 33.6476 11.5739V4.60591H36.8617V10.5448C36.8617 10.912 36.8748 11.2273 36.9011 11.4909C36.9195 11.7208 36.973 11.9467 37.0597 12.1609C37.133 12.3384 37.2522 12.4936 37.4055 12.6111C37.5851 12.7385 37.7883 12.8296 38.0036 12.8791C38.3034 12.9541 38.6101 12.999 38.919 13.0131C39.2825 13.0332 39.7137 13.0439 40.2169 13.0439H40.4881C40.9899 13.0439 41.422 13.0323 41.7846 13.0091C42.0934 12.9937 42.4002 12.9511 42.7013 12.8818C42.9172 12.834 43.1208 12.7428 43.2994 12.6138C43.4507 12.4947 43.5692 12.3399 43.6439 12.1635C43.7317 11.9497 43.7857 11.7237 43.8039 11.4935C43.8292 11.2255 43.8419 10.9129 43.8419 10.5555V4.60457H47.0573V11.5726C47.062 12.0442 47.0257 12.5154 46.9488 12.9809C46.8893 13.3515 46.7571 13.707 46.5596 14.0275C46.3687 14.3244 46.1112 14.5738 45.8069 14.7564C45.4341 14.9719 45.029 15.1275 44.6067 15.2174C44.0361 15.3438 43.456 15.424 42.8722 15.4573C42.1987 15.5037 41.4143 15.5274 40.5193 15.5283L40.1857 15.5296Z" fill="white"/>
<path fill-rule="evenodd" clip-rule="evenodd" d="M63.5848 15.397H58.7786L52.4508 7.31673H52.3884V15.397H49.2367V4.58982H54.1189L60.3694 12.6781H60.4304V4.58982H63.5821V15.3916L63.5848 15.397Z" fill="white"/>
<path fill-rule="evenodd" clip-rule="evenodd" d="M73.0602 10.0463C73.6148 10.0463 74.0556 10.0303 74.3851 9.99676C74.6472 9.98164 74.9028 9.90982 75.1337 9.78638C75.2988 9.68794 75.4185 9.52978 75.4673 9.34551C75.5257 9.10015 75.5521 8.84843 75.546 8.59645V8.41019C75.5518 8.16133 75.5254 7.91275 75.4673 7.67051C75.4436 7.57936 75.4015 7.4939 75.3435 7.41928C75.2854 7.34466 75.2127 7.28243 75.1297 7.23635C74.8958 7.11768 74.6394 7.04875 74.377 7.03401C74.0474 7.00051 73.6094 6.98443 73.0602 6.98443H69.0541V10.0463H73.0602ZM78.7831 15.397H75.607V14.5206C75.6093 14.2486 75.5967 13.9766 75.569 13.7059C75.5504 13.5051 75.4947 13.3094 75.405 13.1283C75.3246 12.9739 75.2043 12.843 75.0564 12.7491C74.8737 12.6404 74.6724 12.5654 74.4624 12.528C74.1628 12.4695 73.859 12.4345 73.5538 12.4235C73.1922 12.4047 72.7636 12.3954 72.2682 12.3954H69.0541V15.397H65.8698V4.58984H74.3499C75.0857 4.5779 75.8211 4.63262 76.5468 4.75332C77.0362 4.82726 77.5009 5.01461 77.903 5.30004C78.2352 5.55816 78.476 5.91381 78.5906 6.31577C78.7282 6.82511 78.7921 7.35115 78.7804 7.87821V8.25743C78.7849 8.631 78.7513 9.00407 78.6801 9.37098C78.623 9.66226 78.5122 9.94069 78.3532 10.1924C78.2035 10.4218 78.005 10.6161 77.7714 10.7619C77.5009 10.9245 77.2041 11.0401 76.894 11.1036V11.1652C77.2156 11.2119 77.5315 11.2914 77.8365 11.4024C78.0674 11.4859 78.2686 11.6339 78.4156 11.8285C78.5686 12.05 78.667 12.3038 78.7031 12.5696C78.7605 12.9568 78.7864 13.348 78.7804 13.7394V15.3916L78.7831 15.397Z" fill="white"/>
<path fill-rule="evenodd" clip-rule="evenodd" d="M92.7504 15.397H80.8704V4.58982H92.5632V6.97905H84.0533V8.8162H92.113V11.0728H84.0533V12.934H92.7504V15.3916V15.397Z" fill="white"/>
<path fill-rule="evenodd" clip-rule="evenodd" d="M103.491 11.2108L101.263 6.87588H101.184L98.9722 11.2108H103.491ZM109.116 15.405H105.65L104.648 13.466H97.8304L96.8444 15.405H93.4039L99.2747 4.60457H103.22L109.116 15.405Z" fill="white"/>
<path fill-rule="evenodd" clip-rule="evenodd" d="M120.824 15.405H110.295V4.60457H113.509V12.8979H120.824V15.4104V15.405Z" fill="white"/>
<path fill-rule="evenodd" clip-rule="evenodd" d="M20.974 14.8694C20.7473 15.9504 19.7379 18.7231 16.5212 20.225L15.2303 18.7901L13.0519 20.9553C11.8116 20.9388 10.5919 20.6391 9.48814 20.0798C8.38441 19.5204 7.42654 18.7164 6.68937 17.7306C6.92113 17.8018 7.16047 17.8462 7.40259 17.8629C7.7592 17.8693 8.14567 17.7402 8.14567 17.1454V11.3059C8.151 11.1557 8.12059 11.0063 8.05688 10.8697C7.99316 10.7332 7.89793 10.6133 7.77882 10.5197C7.65971 10.4261 7.52005 10.3615 7.37106 10.3309C7.22206 10.3003 7.06789 10.3047 6.92093 10.3437C5.91241 10.5717 5.1056 13.0598 5.1056 13.0598C5.09438 11.9108 5.33657 10.7732 5.81531 9.72609C6.29405 8.67896 6.99786 7.74743 7.8778 6.99625C9.38009 5.73826 10.8477 5.30299 11.9627 5.13239C10.8614 5.75261 10.2418 6.76506 10.2418 7.61488C10.2418 8.9773 11.0744 8.81626 11.3213 8.61537V16.5013C11.363 16.6004 11.4172 16.6939 11.4826 16.7795C11.5929 16.9302 11.7382 17.0526 11.9062 17.1364C12.0743 17.2202 12.2602 17.2629 12.4484 17.261C13.2826 17.261 14.3646 16.3203 14.3646 16.3203V9.93474C14.3646 9.28502 13.8692 8.49977 13.373 8.23191C13.373 8.23191 14.2912 8.07247 15.0012 8.60739C15.1343 8.44627 15.276 8.29219 15.4255 8.14581C17.0763 6.54344 18.6342 6.08903 19.9316 5.86103C19.9316 5.86103 17.57 7.6946 17.57 10.15C17.57 11.978 17.6176 16.4351 17.6176 16.4351C18.4963 17.269 19.7977 16.0652 20.974 14.8694Z" fill="white"/>
<path fill-rule="evenodd" clip-rule="evenodd" d="M13.1559 9.77894e-08C10.5537 0.000157775 8.01008 0.762749 5.84656 2.19134C3.68304 3.61993 1.99684 5.65035 1.00119 8.02585C0.00553879 10.4013 -0.254845 13.0152 0.252966 15.537C0.760776 18.0587 2.01397 20.375 3.85408 22.1929C5.69419 24.0109 8.03857 25.2489 10.5907 25.7504C13.1429 26.2518 15.7883 25.9942 18.1923 25.0101C20.5963 24.026 22.651 22.3597 24.0965 20.2217C25.5421 18.0838 26.3136 15.5704 26.3134 12.9992C26.3134 11.292 25.9731 9.60149 25.3118 8.02425C24.6506 6.44701 23.6814 5.01392 22.4596 3.80681C21.2377 2.59971 19.7873 1.64222 18.1909 0.989048C16.5946 0.33587 14.8837 -0.000209299 13.1559 9.77894e-08ZM13.1559 25.4794C10.6578 25.4796 8.21566 24.7478 6.13846 23.3765C4.06125 22.0053 2.44222 20.0562 1.48612 17.7757C0.530008 15.4953 0.279765 12.9859 0.767031 10.5649C1.2543 8.14394 2.45718 5.9201 4.22358 4.17463C5.98998 2.42916 8.24054 1.24046 10.6907 0.758842C13.1408 0.277225 15.6804 0.524329 17.9884 1.4689C20.2964 2.41348 22.2691 4.0131 23.657 6.06548C25.0449 8.11786 25.7857 10.5308 25.7857 12.9992C25.7857 16.309 24.4551 19.4833 22.0866 21.8238C19.7181 24.1642 16.5056 25.4792 13.1559 25.4794Z" fill="white"/>
</svg>
