<svg width="238" height="153" viewBox="0 0 238 153" fill="none" xmlns="http://www.w3.org/2000/svg">
<g clip-path="url(#clip0_341_6693)">
<rect width="340" height="153" fill="#FF2525"/>
<g style="mix-blend-mode:color-dodge" opacity="0.34">
<rect width="238" height="153" fill="url(#paint0_linear_341_6693)"/>
</g>
<g clip-path="url(#clip1_341_6693)">
<path d="M72.4934 81.2948C72.4934 77.9159 70.6424 76.7093 67.7873 76.7093C66.7011 76.7173 65.6312 76.9644 64.6596 77.4315C63.6879 77.8986 62.8404 78.5735 62.182 79.4043V97.2894H53V69.5944H62.1767V72.0281L61.0525 74.0393C62.7781 72.0933 67.3273 68.8955 72.1325 68.8955C78.6897 68.8955 81.6702 72.5611 81.6702 77.6646V97.2743H72.4934V81.2948Z" fill="black"/>
<path d="M103.931 93.1918C102.143 95.1427 97.8863 97.9686 93.0548 97.9686C86.4978 97.9686 83.5801 94.4188 83.5801 89.3152V69.5898H92.7411V85.6799C92.7411 89.0035 94.5294 90.1499 97.5098 90.1499C98.5792 90.1417 99.6316 89.8939 100.584 89.426C101.536 88.9581 102.362 88.2832 102.995 87.4548V69.5898H112.193V97.2847H103.011V95.2333L103.931 93.1918Z" fill="black"/>
<path d="M157.579 68.9121C166.102 68.9121 172.303 74.9459 172.303 84.3284V86.219H152.48L151.691 85.2133C151.698 85.6283 151.753 86.0414 151.853 86.4452C152.512 88.9291 154.964 91.1565 159.132 91.1565C161.699 91.1565 164.559 90.1811 166.164 88.8034L170.039 94.3343C167.179 96.7981 162.41 97.9998 158.013 97.9998C149.123 97.9998 142.273 92.4688 142.273 83.4435C142.263 75.3883 148.585 68.9121 157.579 68.9121ZM151.675 80.4769H163.539C163.299 78.5258 161.809 75.7152 157.579 75.7152C153.589 75.7303 152.041 78.4856 151.68 80.4918L151.675 80.4769Z" fill="black"/>
<path d="M174.166 69.5898H183.348V97.2847H174.166V69.5898Z" fill="black"/>
<path d="M134.906 69.6006L128.705 86.0878L128.93 88.6572L121.85 69.6006H114.027V74.0756L123.523 97.2855H133.296L144.622 69.6006H134.906Z" fill="black"/>
<path d="M173.51 61.0432C173.51 59.7057 174.062 58.4229 175.046 57.4771C176.029 56.5313 177.363 56 178.754 56C180.145 56 181.479 56.5313 182.463 57.4771C183.446 58.4229 183.999 59.7057 183.999 61.0432C183.999 62.3808 183.446 63.6635 182.463 64.6093C181.479 65.5551 180.145 66.0864 178.754 66.0864C177.363 66.0864 176.029 65.5551 175.046 64.6093C174.062 63.6635 173.51 62.3808 173.51 61.0432Z" fill="black"/>
</g>
</g>
<defs>
<linearGradient id="paint0_linear_341_6693" x1="0" y1="76.5" x2="238" y2="76.5" gradientUnits="userSpaceOnUse">
<stop stop-color="#504D61"/>
<stop offset="0.496118" stop-color="white"/>
<stop offset="1" stop-color="#504D61"/>
</linearGradient>
<clipPath id="clip0_341_6693">
<rect width="238" height="153" rx="16" fill="white"/>
</clipPath>
<clipPath id="clip1_341_6693">
<rect width="131" height="42" fill="white" transform="translate(53 56)"/>
</clipPath>
</defs>
</svg>
